<?xml version="1.0" encoding="utf-8"?>
<!-- Generator: Adobe Illustrator 18.0.0, SVG Export Plug-In . SVG Version: 6.00 Build 0)  -->
<!DOCTYPE svg PUBLIC "-//W3C//DTD SVG 1.1//EN" "http://www.w3.org/Graphics/SVG/1.1/DTD/svg11.dtd">
<svg version="1.1" id="Our_Team" xmlns="http://www.w3.org/2000/svg" xmlns:xlink="http://www.w3.org/1999/xlink" x="0px" y="0px"
	 viewBox="0 0 401.4 178.7" enable-background="new 0 0 401.4 178.7" xml:space="preserve">
<g id="Efect">
	<g>
		<path fill="#D2E9F7" d="M46.9,60.6L46.9,60.6c0,6.1,4.9,11,11,11h53.4c5,0,9.1,4.1,9.1,9.1l0,0c0,5-4.1,9.1-9.1,9.1H18.6
			c-7.7,0-14,6.2-14,14v0c0,7.7,6.2,14,14,14h44.4c6.1,0,11.1,4.9,11.1,11.1v0c0,6.1-4.9,11.1-11.1,11.1h-3.1
			c-10.6,0-19.1,8.6-19.1,19.1l0,0c0,10.6,8.6,19.1,19.1,19.1h233.8c7,0,12.6-5.6,12.6-12.6l0,0c0-7-5.6-12.6-12.6-12.6h-6.7
			c-5.3,0-9.7-4.3-9.7-9.7l0,0c0-5.3,4.3-9.7,9.7-9.7h52.6c7.4,0,13.4-6,13.4-13.4v0c0-7.4-6-13.4-13.4-13.4h-39.4
			c-6.6,0-11.9-5.3-11.9-11.9v0c0-6.6,5.3-11.9,11.9-11.9h84.7c9.2,0,16.6-7.4,16.6-16.6v0c0-9.2-7.4-16.6-16.6-16.6h-327
			C51.8,49.6,46.9,54.5,46.9,60.6z"/>
	</g>
	<g id="XMLID_584_">
		<circle fill="#5FB0E5" cx="116.7" cy="5.1" r="1"/>
	</g>
	<g id="XMLID_21_">
		<circle fill="#5FB0E5" cx="307" cy="144" r="1"/>
	</g>
	<g id="XMLID_25_">
		<circle fill="#5FB0E5" cx="379.3" cy="99.8" r="1"/>
	</g>
	<g id="XMLID_32_">
		<circle fill="#5FB0E5" cx="78.8" cy="82.8" r="1"/>
	</g>
	<g id="XMLID_13_">
		<circle fill="#5FB0E5" cx="312.9" cy="97.4" r="1"/>
	</g>
	<g id="XMLID_16_">
		<circle fill="#5FB0E5" cx="199" cy="28.4" r="1.9"/>
	</g>
	<g id="XMLID_22_">
		<circle fill="#5FB0E5" cx="70.4" cy="28.4" r="1.4"/>
	</g>
	<g id="XMLID_276_">
		<circle fill="#5FB0E5" cx="1.4" cy="142.3" r="1.4"/>
	</g>
	<g id="XMLID_24_">
		<circle fill="#5FB0E5" cx="120.4" cy="35.5" r="1.7"/>
	</g>
	<g id="XMLID_17_">
		<path fill="#5FB0E5" d="M220.8,2.6c-1.7,0.5-2.1,0.8-2.6,2.6c-0.5-1.7-0.8-2.1-2.6-2.6c1.7-0.5,2.1-0.8,2.6-2.6
			C218.7,1.7,219.1,2.1,220.8,2.6z"/>
	</g>
	<g id="XMLID_23_">
		<path fill="#5FB0E5" d="M370.1,134.1c-1.6,0.4-2,0.8-2.4,2.4c-0.4-1.6-0.8-2-2.4-2.4c1.6-0.4,2-0.8,2.4-2.4
			C368.2,133.3,368.5,133.7,370.1,134.1z"/>
	</g>
	<g id="XMLID_18_">
		<path fill="#5FB0E5" d="M57.4,132c-2.1,0.6-2.6,1-3.1,3.1c-0.6-2.1-1-2.6-3.1-3.1c2.1-0.6,2.6-1,3.1-3.1
			C54.8,131,55.3,131.4,57.4,132z"/>
	</g>
	<g id="XMLID_29_">
		<path fill="#5FB0E5" d="M340.3,93.1c-2.7,0.7-3.3,1.3-4,4c-0.7-2.7-1.3-3.3-4-4c2.7-0.7,3.3-1.3,4-4
			C337,91.8,337.6,92.4,340.3,93.1z"/>
	</g>
	<g id="XMLID_28_">
		<path fill="#5FB0E5" d="M289.3,21.8c-2.1,0.6-2.6,1-3.1,3.1c-0.6-2.1-1-2.6-3.1-3.1c2.1-0.6,2.6-1,3.1-3.1
			C286.8,20.8,287.2,21.3,289.3,21.8z"/>
	</g>
	<g id="XMLID_19_">
		<path fill="#5FB0E5" d="M36.1,69.3c-2.2,0.6-2.7,1.1-3.3,3.3c-0.6-2.2-1.1-2.7-3.3-3.3c2.2-0.6,2.7-1.1,3.3-3.3
			C33.4,68.3,33.9,68.7,36.1,69.3z"/>
	</g>
</g>
<g>
	<g id="XMLID_99_">
		<path fill="#5FB0E5" d="M265.1,177.9l0.2-68.2l6.9,4.8V95.7c0-12.4-10.7-22.5-25.1-22.5l0,0c-14.4,0-25.1,10.1-25.1,22.5v82.3
			H265.1z"/>
	</g>
	<g id="XMLID_571_">
		<path fill="#FFFFFF" d="M246.8,92.3c8,0,14.6-6.6,14.6-14.6v-0.9c-4.1-2.3-9.1-3.7-14.4-3.7c-5.5,0-10.6,1.5-14.8,4v0.6
			C232.2,85.8,238.8,92.3,246.8,92.3z"/>
	</g>
	<g id="XMLID_98_">
		<path fill="#FFFFFF" d="M230.1,79.4c-5,4.1-8.2,9.9-8.2,16.3v82.3h8.2V79.4z"/>
	</g>
	<g>
		<path fill="#FFFFFF" d="M301.2,120.4l-0.1-9.5h-17c-12.2,1.9-12.3-4.9-11.9-13.9l0-1.4v0v0l0-0.5l0.1-2.8c-0.7-4.1-2.3-8.9-7.4-13
			v98.6h0.2l0.2-70.7c-0.4,16.6,16.4,13.1,16.4,13.1L301.2,120.4z"/>
	</g>
	<g>
		<path fill="#0686D8" d="M266,177.9h-1.5v-72.6h1.5v5c0,5.1,4.1,9.3,9.3,9.3h25.8v1.5h-25.8c-3.9,0-7.4-2.1-9.3-5.3V177.9z"/>
	</g>
	<g id="XMLID_84_">
		<path fill="#FFFFFF" d="M253.6,71.6L253.6,71.6c-4.5,2-9.7,2-14.2,0l-0.1,0c-6.3-2.7-10.3-8.9-10.3-15.7V33.8h34.8v22.1
			C263.9,62.7,259.8,68.9,253.6,71.6z"/>
	</g>
	<g id="XMLID_750_">
		<path fill="#FFFFFF" d="M316.1,113.8h-0.6c0.8,0,1.5-0.7,1.5-1.5s-0.7-1.5-1.5-1.5h-5.6h-3.6c0,0,1.2-3.1,1.2-4.5
			c0-0.7,0.2-2-0.3-2.6c-0.2-0.3-1.3-0.3-1.5,0c0,0-1.1,3.5-1.9,4.5c-0.4,0.6-2,2.7-2,2.7h-2.5l-1.3,9.5h3.2c0.3,0,0.6,0.1,0.8,0.4
			l1.5,1.5c0.3,0.3,0.6,0.4,1,0.4h8.4c0.8,0,1.5-0.7,1.5-1.5c0-0.8-0.7-1.5-1.5-1.5h1.5c0.8,0,1.5-0.7,1.5-1.5
			c0-0.8-0.7-1.5-1.5-1.5h1.5c0.8,0,1.5-0.7,1.5-1.5C317.6,114.5,316.9,113.8,316.1,113.8z"/>
	</g>
	<g id="XMLID_749_">
		<path fill="#F1F2F2" d="M306.4,109.6h0.4c0.3-1,0.8-2.4,0.8-3.3c0-0.4,0.1-1,0-1.6c0,0.1,0,0.3,0,0.4
			C307.6,106.6,306.4,109.6,306.4,109.6z"/>
	</g>
	<g id="XMLID_747_">
		<path fill="#0686D8" d="M316,117.5h-2.5V116h2.5c0.4,0,0.7-0.3,0.7-0.7c0-0.4-0.3-0.7-0.7-0.7h-2.5v-1.5h2.5c1.2,0,2.2,1,2.2,2.2
			C318.2,116.5,317.2,117.5,316,117.5z"/>
	</g>
	<g id="XMLID_746_">
		<path fill="#0686D8" d="M314.4,120.4h-3.6v-1.5h3.6c0.4,0,0.7-0.3,0.7-0.7s-0.3-0.7-0.7-0.7h-3.6V116h3.6c1.2,0,2.2,1,2.2,2.2
			S315.6,120.4,314.4,120.4z"/>
	</g>
	<g id="XMLID_745_">
		<path fill="#0686D8" d="M312.9,123.4h-8.4c-0.6,0-1.1-0.2-1.5-0.6l-1.5-1.5c-0.1-0.1-0.2-0.1-0.3-0.1H298v-1.5h3.2
			c0.5,0,1,0.2,1.4,0.6l1.5,1.5c0.1,0.1,0.3,0.2,0.5,0.2h8.4c0.4,0,0.7-0.3,0.7-0.7c0-0.4-0.3-0.7-0.7-0.7h-1.4v-1.5h1.4
			c1.2,0,2.2,1,2.2,2.2S314.1,123.4,312.9,123.4z"/>
	</g>
	<g id="XMLID_744_">
		<path fill="#0686D8" d="M315.4,114.6h-4.5v-1.5h4.5c0.4,0,0.7-0.3,0.7-0.7c0-0.4-0.3-0.7-0.7-0.7h-10.3l0.4-1
			c0.3-0.8,1.2-3.2,1.2-4.2c0-0.1,0-0.3,0-0.5c0-0.4,0-1.2-0.1-1.6c-0.1,0-0.2,0-0.3,0c-0.3,0.9-1.2,3.4-1.9,4.4
			c-0.4,0.6-2,2.7-2,2.7l-0.2,0.3h-2.9v-1.5h2.1c0.5-0.6,1.5-1.9,1.8-2.4c0.5-0.7,1.3-3,1.8-4.3l0.1-0.2c0.2-0.3,0.7-0.5,1.4-0.5
			c0,0,0,0,0,0c0.7,0,1.2,0.2,1.4,0.5c0.5,0.7,0.4,1.8,0.4,2.6c0,0.2,0,0.3,0,0.4c0,1-0.5,2.7-0.9,3.8h8.1c1.2,0,2.2,1,2.2,2.2
			S316.6,114.6,315.4,114.6z"/>
	</g>
	<g id="XMLID_94_">
		<path fill="#0686D8" d="M265.1,178.7h-43.9v-83c0-13,11.4-23.2,25.9-23.2s25.9,10.2,25.9,23.2l0,8.7c0,1.5,0.6,3,1.7,4
			c1.1,1.1,2.5,1.7,4,1.7H300v1.5h-21.4c-1.9,0-3.7-0.8-5.1-2.1c-1.4-1.4-2.1-3.2-2.1-5.1l0-8.7c0-12.2-10.7-21.7-24.4-21.7
			c-13.7,0-24.4,9.5-24.4,21.7v81.5h42.4V178.7z"/>
	</g>
	<g id="XMLID_568_">
		<path fill="#FFFFFF" d="M268.5,52.5c0,1.4-1.1,2.5-2.5,2.5l0,0c-1.4,0-2.5-1.1-2.5-2.5v-2.4c0-1.4,1.1-2.5,2.5-2.5l0,0
			c1.4,0,2.5,1.1,2.5,2.5V52.5z"/>
	</g>
	<g id="XMLID_567_">
		<path fill="#0686D8" d="M266,55.7c-1.8,0-3.2-1.5-3.2-3.2v-2.4c0-1.8,1.5-3.2,3.2-3.2c1.8,0,3.2,1.5,3.2,3.2v2.4
			C269.2,54.3,267.8,55.7,266,55.7z M266,48.3c-1,0-1.7,0.8-1.7,1.7v2.4c0,1,0.8,1.7,1.7,1.7s1.7-0.8,1.7-1.7v-2.4
			C267.7,49.1,266.9,48.3,266,48.3z"/>
	</g>
	<g id="XMLID_96_">
		<path fill="#FFFFFF" d="M229,52.5c0,1.4-1.1,2.5-2.5,2.5l0,0c-1.4,0-2.5-1.1-2.5-2.5v-2.4c0-1.4,1.1-2.5,2.5-2.5l0,0
			c1.4,0,2.5,1.1,2.5,2.5V52.5z"/>
	</g>
	<g id="XMLID_95_">
		<path fill="#0686D8" d="M226.5,55.7c-1.8,0-3.2-1.5-3.2-3.2v-2.4c0-1.8,1.5-3.2,3.2-3.2c1.8,0,3.2,1.5,3.2,3.2v2.4
			C229.7,54.3,228.3,55.7,226.5,55.7z M226.5,48.3c-1,0-1.7,0.8-1.7,1.7v2.4c0,1,0.8,1.7,1.7,1.7c1,0,1.7-0.8,1.7-1.7v-2.4
			C228.2,49.1,227.5,48.3,226.5,48.3z"/>
	</g>
	<g id="XMLID_82_">
		<path fill="#0686D8" d="M246.5,73.8c-2.5,0-5-0.5-7.4-1.5c-6.6-2.9-10.8-9.3-10.8-16.4v-19h36.3v19.1c0,7.1-4.2,13.5-10.7,16.4h0
			C251.5,73.3,249,73.8,246.5,73.8z M229.8,38.4v17.5c0,6.5,3.9,12.4,9.8,15c4.4,1.9,9.3,1.9,13.7,0h0c6-2.6,9.8-8.5,9.8-15V38.4
			H229.8z"/>
	</g>
	<g id="XMLID_534_">
		<path fill="#D2E9F7" d="M253.6,20.2L253.6,20.2c-4.5-2-9.7-2-14.2,0l-0.1,0c-6.3,2.7-10.3,8.9-10.3,15.7V39h34.8v-3.2
			C263.9,29.1,259.8,22.9,253.6,20.2z"/>
	</g>
	<g id="XMLID_81_">
		<path fill="#0686D8" d="M264.6,39.8h-36.3v-3.9c0-7.1,4.2-13.5,10.8-16.4c4.8-2.1,10.1-2.1,14.9,0l0,0c6.5,2.8,10.7,9.3,10.7,16.4
			V39.8z M229.8,38.3h33.3v-2.4c0-6.5-3.9-12.4-9.8-15l0,0c-4.3-1.9-9.3-1.9-13.6,0c-6,2.6-9.9,8.5-9.9,15V38.3z"/>
	</g>
	<g id="XMLID_80_">
		<path fill="#0686D8" d="M254.8,39.8h-16.6v-4c0-7,1.7-13.4,4.5-16.4l0-1.6l1.5,0l0,2.2l-0.2,0.2c-2.6,2.6-4.3,8.7-4.3,15.5v2.5
			h13.6v-2.5c0-6.8-1.7-12.9-4.2-15.5l-0.2-0.2v-2.2h1.5v1.6c2.7,3,4.5,9.4,4.5,16.3V39.8z"/>
	</g>
	<g id="XMLID_79_">
		<rect x="212.1" y="38.3" fill="#0686D8" width="22.8" height="1.5"/>
	</g>
	<g id="XMLID_78_">
		<path fill="#5FB0E5" d="M245.2,69.3l-1.9,2.2V76l1.9,4.2c0.7,0.8,2.1,0.8,2.8,0l1.9-4.2l-0.1-4.4l-2-2.3
			C246.9,68.9,246,68.8,245.2,69.3z"/>
	</g>
	<g id="XMLID_77_">
		<path fill="#0686D8" d="M246.5,81.6C246.5,81.6,246.5,81.6,246.5,81.6c-0.7,0-1.5-0.3-2-0.9l-0.1-0.2l-1.9-4.3v-4.9l2.3-2.5
			c1-0.6,2.3-0.6,3.3,0l0.2,0.2l2.1,2.5l0.1,4.8l-2,4.5C248,81.2,247.2,81.6,246.5,81.6z M245.7,79.8c0.2,0.2,0.5,0.3,0.8,0.3h0
			c0.3,0,0.6-0.1,0.8-0.3l1.7-3.9l-0.1-3.9l-1.7-2c-0.5-0.3-1.1-0.3-1.6,0l-1.7,1.9v4.1L245.7,79.8z"/>
	</g>
	<g id="XMLID_76_">
		<rect x="233.4" y="44.4" fill="#0686D8" width="8.8" height="1.5"/>
	</g>
	<g id="XMLID_540_">
		<rect x="249.6" y="44.4" fill="#0686D8" width="8.8" height="1.5"/>
	</g>
	<g id="XMLID_543_">
		<polygon fill="#0686D8" points="250.4,58 242.2,58 242.2,49.6 243.7,49.6 243.7,56.5 248.9,56.5 248.9,55.3 250.4,55.3 		"/>
	</g>
	<g id="XMLID_570_">
		<polygon fill="#0686D8" points="251.6,66 241.4,66 241.4,64.5 251.1,64.5 254.1,61.9 255.1,63.1 		"/>
	</g>
</g>
<g>
	<g>
		<g>
			<path fill="#FFFFFF" d="M105.2,41.7c-0.7,0-1.3,0.6-1.3,1.3v2.4l-3.1,2.1c0,0,0,0,0,0v-3.7V32.3c0-0.8-0.7-1.5-1.5-1.5
				c-0.8,0-1.5,0.7-1.5,1.5v-0.6c0-0.8-0.7-1.5-1.5-1.5c-0.8,0-1.5,0.7-1.5,1.5v1.6c0-0.8-0.7-1.5-1.5-1.5c-0.8,0-1.5,0.7-1.5,1.5
				v1.6c0-0.8-0.7-1.5-1.5-1.5c-0.8,0-1.5,0.7-1.5,1.5v14.4c0,0.4,0.2,0.8,0.4,1l1.6,1.5c0.2,0.2,0.4,0.6,0.4,0.9v3.3h10l-0.1-4
				c0,0,2.2-1.7,2.8-2.1l2.5-1.9c0.2-0.2,0.4-0.5,0.4-0.8v-4.4C106.4,42.2,105.8,41.7,105.2,41.7z"/>
		</g>
		<g id="XMLID_36_">
			<path fill="#0686D8" d="M98.4,40h-1.5v-8.3c0-0.4-0.4-0.8-0.8-0.8c-0.4,0-0.8,0.4-0.8,0.8V40h-1.5v-8.3c0-1.3,1-2.3,2.3-2.3
				c1.3,0,2.3,1,2.3,2.3V40z"/>
		</g>
		<g id="XMLID_20_">
			<path fill="#0686D8" d="M95.4,42.7h-1.5v-9.4c0-0.4-0.4-0.8-0.8-0.8c-0.4,0-0.8,0.4-0.8,0.8v9.4h-1.5v-9.4c0-1.3,1-2.3,2.3-2.3
				c1.3,0,2.3,1,2.3,2.3V42.7z"/>
		</g>
		<g id="XMLID_15_">
			<path fill="#0686D8" d="M91.6,56.1h-1.5v-3.3c0-0.1-0.1-0.3-0.1-0.3l-1.6-1.5c-0.4-0.4-0.7-1-0.7-1.6V34.9c0-1.3,1-2.3,2.3-2.3
				c1.3,0,2.3,1,2.3,2.3V42h-1.5v-7.1c0-0.4-0.4-0.8-0.8-0.8c-0.4,0-0.8,0.4-0.8,0.8v14.4c0,0.2,0.1,0.4,0.2,0.5l1.6,1.5
				c0.4,0.4,0.6,0.9,0.6,1.4V56.1z"/>
		</g>
		<g id="XMLID_37_">
			<path fill="#0686D8" d="M101.5,56.1H100v-4.4l0.3-0.2c0,0,2.2-1.7,2.8-2.1l2.5-1.9c0.1,0,0.1-0.1,0.1-0.2v-4.4
				c0-0.3-0.2-0.5-0.5-0.5c-0.3,0-0.5,0.2-0.5,0.5v2.8l-3.8,2.6l-0.8-0.4l0-0.5V32.3c0-0.4-0.4-0.8-0.8-0.8c-0.4,0-0.8,0.4-0.8,0.8
				v10.4h-1.5V32.3c0-1.3,1-2.3,2.3-2.3c1.3,0,2.3,1,2.3,2.3v13.8l1.6-1.1v-2c0-1.1,0.9-2,2-2s2,0.9,2,2v4.4c0,0.5-0.3,1-0.7,1.4
				l-2.5,1.9c-0.5,0.3-1.9,1.4-2.5,1.9V56.1z"/>
		</g>
	</g>
	<g>
		<path fill="#D2E9F7" d="M151.3,72.4c-9.5,0-17.8,4.5-22.1,11.1h-23.5c-2,0-3.6-1.6-3.6-3.6V55.1H89.7v24.8
			c0,8.7,7.1,15.8,15.8,15.8h20.2v82.2h50.9V94.2C176.7,82.2,165.3,72.4,151.3,72.4z"/>
	</g>
	<g>
		<path fill="#0686D8" d="M177.5,178.7h-52.4V96.5h-19.5c-9.2,0-16.6-7.4-16.6-16.6V54.4h13.7v25.5c0,1.6,1.3,2.9,2.9,2.9h23.1
			c4.7-6.9,13.3-11.1,22.5-11.1c14.4,0,26.2,10.1,26.2,22.6V178.7z M126.6,177.2H176V94.2c0-11.6-11.1-21.1-24.7-21.1
			c-8.9,0-17.1,4.1-21.5,10.8l-0.2,0.3h-23.9c-2.4,0-4.4-2-4.4-4.4v-24H90.5v24c0,8.3,6.8,15.1,15.1,15.1h21V177.2z"/>
	</g>
	<g id="XMLID_419_">
		<path fill="#5FB0E5" d="M163.6,42.5l9.4-7.1v8.8c0,1.8-1.6,3.3-3.4,3.1l-6-0.5V42.5z"/>
	</g>
	<g id="XMLID_44_">
		<path fill="#0686D8" d="M169.4,48.5h-4.2l-2.4-6.2l11-8.3V44C173.8,46.5,171.8,48.5,169.4,48.5z M166.2,47h3.2
			c1.6,0,2.9-1.3,2.9-2.9V37l-7.7,5.8L166.2,47z"/>
	</g>
	<g id="XMLID_42_">
		<path fill="#FFFFFF" d="M135.6,54.2c0,1.3-1.1,2.4-2.4,2.4l0,0c-1.3,0-2.4-1.1-2.4-2.4v-2.3c0-1.3,1.1-2.4,2.4-2.4l0,0
			c1.3,0,2.4,1.1,2.4,2.4V54.2z"/>
	</g>
	<g id="XMLID_41_">
		<path fill="#0686D8" d="M133.2,57.4c-1.7,0-3.1-1.4-3.1-3.1v-2.3c0-1.7,1.4-3.1,3.1-3.1c1.7,0,3.1,1.4,3.1,3.1v2.3
			C136.3,56,134.9,57.4,133.2,57.4z M133.2,50.3c-0.9,0-1.6,0.7-1.6,1.6v2.3c0,0.9,0.7,1.6,1.6,1.6c0.9,0,1.6-0.7,1.6-1.6v-2.3
			C134.8,51,134.1,50.3,133.2,50.3z"/>
	</g>
	<g id="XMLID_40_">
		<path fill="#FFFFFF" d="M173,54.2c0,1.3-1.1,2.4-2.4,2.4l0,0c-1.3,0-2.4-1.1-2.4-2.4v-2.3c0-1.3,1.1-2.4,2.4-2.4l0,0
			c1.3,0,2.4,1.1,2.4,2.4V54.2z"/>
	</g>
	<g id="XMLID_39_">
		<path fill="#0686D8" d="M170.6,57.4c-1.7,0-3.1-1.4-3.1-3.1v-2.3c0-1.7,1.4-3.1,3.1-3.1c1.7,0,3.1,1.4,3.1,3.1v2.3
			C173.8,56,172.4,57.4,170.6,57.4z M170.6,50.3c-0.9,0-1.6,0.7-1.6,1.6v2.3c0,0.9,0.7,1.6,1.6,1.6c0.9,0,1.6-0.7,1.6-1.6v-2.3
			C172.3,51,171.5,50.3,170.6,50.3z"/>
	</g>
	<g id="XMLID_385_">
		<path fill="#FFFFFF" d="M165.5,89l-10.9,3.5c-1.7,0.5-3.4,0.5-5.1,0L138.6,89c-2.2-0.7-3.6-2.7-3.6-5V43.1
			c0-6.9,5.6-12.5,12.5-12.5h9.1c6.9,0,12.5,5.6,12.5,12.5V84C169.1,86.2,167.6,88.3,165.5,89z"/>
	</g>
	<g id="XMLID_391_">
		<path fill="#5FB0E5" d="M165.5,89l-10.9,3.5c-1.7,0.5-3.4,0.5-5.1,0L138.6,89c-2.2-0.7-3.6-2.7-3.6-5V65.5l0,0
			c1.2,0.6,2.6,0.6,3.8,0l7.5-3.4c1.3-0.2,2.7,0.3,3.6,1.2l2.1,2.1c0.1,0.1,0.2,0.1,0.2,0l2.1-2.1c0.9-0.9,2.3-1.4,3.6-1.2l7.1,3.3
			c1.3,0.6,2.8,0.6,4.1,0.1l0,0V84C169.1,86.2,167.6,88.3,165.5,89z"/>
	</g>
	<g id="XMLID_11_">
		<path fill="#0686D8" d="M136.9,66.7c-0.8,0-1.5-0.2-2.2-0.5l0.6-1.4c1,0.5,2.1,0.5,3.1,0l7.7-3.5c1.5-0.2,3.1,0.3,4.2,1.4l1.7,1.7
			l1.7-1.7c1.1-1.1,2.6-1.6,4.2-1.4l0.2,0.1l7.1,3.3c1.1,0.5,2.4,0.5,3.5,0.1l0.6,1.4c-1.5,0.6-3.2,0.6-4.7-0.1l-7-3.3
			c-1-0.1-2.1,0.2-2.8,1l-2.1,2.1c-0.4,0.4-0.9,0.3-1.3,0l-2.1-2.1c-0.7-0.7-1.8-1.1-2.9-1l-7.4,3.4
			C138.4,66.5,137.6,66.7,136.9,66.7z"/>
	</g>
	<g id="XMLID_382_">
		<path fill="#0686D8" d="M152,93.6c-0.9,0-1.9-0.1-2.8-0.4l-10.9-3.5c-2.5-0.8-4.1-3.1-4.1-5.7V43.1c0-7.3,5.9-13.3,13.3-13.3h9.1
			c7.3,0,13.3,5.9,13.3,13.3V84c0,2.6-1.7,4.9-4.1,5.7l-10.9,3.5C153.9,93.5,153,93.6,152,93.6z M147.5,31.4
			c-6.5,0-11.8,5.3-11.8,11.8V84c0,2,1.3,3.7,3.1,4.3l10.9,3.5c1.5,0.5,3.1,0.5,4.6,0l10.9-3.5c1.9-0.6,3.1-2.3,3.1-4.3V43.1
			c0-6.5-5.3-11.8-11.8-11.8H147.5z"/>
	</g>
	<g id="XMLID_10_">
		<path fill="#FFFFFF" d="M147.7,69.3h8.9c0,2.5-2,4.5-4.5,4.5C148.7,73.8,147.7,69.3,147.7,69.3z"/>
	</g>
	<g id="XMLID_9_">
		<path fill="#0686D8" d="M152.1,74.5c-2.9,0-5.2-2.3-5.2-5.2v-0.8h10.4v0.8C157.4,72.2,155,74.5,152.1,74.5z M148.5,70.1
			c0.3,1.7,1.8,3,3.6,3c1.8,0,3.3-1.3,3.6-3H148.5z"/>
	</g>
	<g id="XMLID_8_">
		<path fill="#5FB0E5" d="M135,48.1L135,48.1c0-4.3,2-8.4,5.5-11l5.1-3.8l20.7,5.9c4.4,1.3,9.4-0.2,12-4c2.5-3.7,2.8-9.6-6.4-18.4
			c0,0-0.1,0-0.1,0c0.1,1.3,1.3,9.9-4.8,8.7c0,0-13.1-2.2-22.6-2.4c-3.6-0.1-6.5,2.8-6.5,6.4v0.4h-3.6c-1.9,0-3.4,1.5-3.4,3.4V37
			v7.7c0.1,2,1.7,3.5,3.7,3.5H135z"/>
	</g>
	<g id="XMLID_7_">
		<path fill="#0686D8" d="M135.7,48.9h-1.2c-2.4,0-4.3-1.9-4.5-4.2l0-11.3c0-2.3,1.9-4.2,4.2-4.2h2.9c0.1-1.8,0.8-3.5,2.1-4.8
			c1.4-1.3,3.2-2,5.1-2c9.5,0.2,22.6,2.4,22.7,2.4c1.2,0.2,2.1,0.1,2.7-0.5c1.7-1.5,1.4-5.4,1.2-6.9c0-0.2,0-0.4,0-0.5l0-0.5
			l0.5-0.3c0.3-0.1,0.7-0.1,0.9,0.2c9.8,9.4,8.9,15.7,6.5,19.3c-2.6,3.9-7.9,5.7-12.8,4.3l-20.3-5.8l-4.8,3.6
			c-3.2,2.5-5.2,6.4-5.2,10.4V48.9z M134.2,30.7c-1.5,0-2.7,1.2-2.7,2.7v11.3c0.1,1.5,1.2,2.6,2.7,2.8c0.2-4.3,2.3-8.3,5.7-10.9
			l5.4-4.1l21.1,6c4.3,1.2,8.8-0.3,11.1-3.7c2.9-4.3,1.2-9.7-5-16.1c0.1,2.1,0,5.2-1.8,6.8c-1,0.9-2.3,1.2-4,0.9
			c-0.1,0-13.1-2.2-22.5-2.4c-1.5,0-2.9,0.5-4,1.6c-1.1,1.1-1.7,2.5-1.7,4.1v1.1H134.2z"/>
	</g>
	<g id="XMLID_6_">
		
			<rect x="141.6" y="32.1" transform="matrix(0.9316 0.3636 -0.3636 0.9316 21.8943 -50.6243)" fill="#0686D8" width="7.6" height="1.5"/>
	</g>
	<g id="XMLID_4_">
		<polygon fill="#0686D8" points="154.4,58.6 148,58.6 148,57.1 152.9,57.1 152.9,44.6 154.4,44.6 		"/>
	</g>
	<g id="XMLID_3_">
		<rect x="141" y="45.1" fill="#0686D8" width="8" height="1.5"/>
	</g>
	<g id="XMLID_2_">
		<rect x="142.8" y="47" fill="#0686D8" width="3.4" height="1.5"/>
	</g>
	<g id="XMLID_406_">
		<rect x="157.5" y="48.8" fill="#0686D8" width="3.4" height="1.5"/>
	</g>
	<g id="XMLID_1_">
		<rect x="155.7" y="45.1" fill="#0686D8" width="8" height="1.5"/>
	</g>
	<g>
		<rect x="165.7" y="106.6" fill="#0686D8" width="1.5" height="71.3"/>
	</g>
	<g>
		<polygon fill="#0686D8" points="152.8,177.9 151.3,177.9 151.3,99.4 144,91.4 145.1,90.4 152.8,98.8 		"/>
	</g>
	<g>
		<path fill="#0686D8" d="M148.9,106.6c-1.1,0-2.1-0.9-2.1-2.1c0-1.1,0.9-2.1,2.1-2.1c1.1,0,2.1,0.9,2.1,2.1
			C151,105.7,150.1,106.6,148.9,106.6z M148.9,104c-0.3,0-0.6,0.2-0.6,0.6c0,0.3,0.2,0.6,0.6,0.6c0.3,0,0.6-0.2,0.6-0.6
			C149.5,104.3,149.2,104,148.9,104z"/>
	</g>
	<g>
		<path fill="#0686D8" d="M148.9,113.4c-1.1,0-2.1-0.9-2.1-2.1c0-1.1,0.9-2.1,2.1-2.1c1.1,0,2.1,0.9,2.1,2.1
			C151,112.5,150.1,113.4,148.9,113.4z M148.9,110.8c-0.3,0-0.6,0.2-0.6,0.6c0,0.3,0.2,0.6,0.6,0.6c0.3,0,0.6-0.2,0.6-0.6
			C149.5,111,149.2,110.8,148.9,110.8z"/>
	</g>
	<g>
		<path fill="#0686D8" d="M148.9,120.1c-1.1,0-2.1-0.9-2.1-2.1c0-1.1,0.9-2.1,2.1-2.1c1.1,0,2.1,0.9,2.1,2.1
			C151,119.2,150.1,120.1,148.9,120.1z M148.9,117.5c-0.3,0-0.6,0.2-0.6,0.6c0,0.3,0.2,0.6,0.6,0.6c0.3,0,0.6-0.2,0.6-0.6
			C149.5,117.8,149.2,117.5,148.9,117.5z"/>
	</g>
	<g>
		<path fill="#0686D8" d="M148.9,126.8c-1.1,0-2.1-0.9-2.1-2.1c0-1.1,0.9-2.1,2.1-2.1c1.1,0,2.1,0.9,2.1,2.1
			C151,125.9,150.1,126.8,148.9,126.8z M148.9,124.2c-0.3,0-0.6,0.2-0.6,0.6c0,0.3,0.2,0.6,0.6,0.6c0.3,0,0.6-0.2,0.6-0.6
			C149.5,124.5,149.2,124.2,148.9,124.2z"/>
	</g>
	<g>
		<path fill="#0686D8" d="M148.9,133.6c-1.1,0-2.1-0.9-2.1-2.1c0-1.1,0.9-2.1,2.1-2.1c1.1,0,2.1,0.9,2.1,2.1
			C151,132.7,150.1,133.6,148.9,133.6z M148.9,131c-0.3,0-0.6,0.2-0.6,0.6s0.2,0.6,0.6,0.6c0.3,0,0.6-0.2,0.6-0.6
			S149.2,131,148.9,131z"/>
	</g>
</g>
<g opacity="0.3">
	<path fill="#0565A2" d="M223.9,147.8h0.8v-3.6c0-3.9-1-7.5-2.6-10.7c1.6-1.2,2.7-3.2,2.7-5.4V83.8c-2.2,3.5-3.5,7.5-3.5,11.9v52.2
		L223.9,147.8L223.9,147.8z"/>
</g>
<g opacity="0.3">
	<g>
		<path fill="#0565A2" d="M177.5,147.8v-13.4c-0.7,1.5-1.3,3.1-1.7,4.7l-0.7-0.2c-0.4,1.7-0.6,3.5-0.6,5.3v3.6h0.8v0H177.5z"/>
	</g>
	<g>
		<path fill="#0565A2" d="M177.5,133.9V94.2c0-4-1.2-7.7-3.3-11v44.9C174.1,130.6,175.5,132.7,177.5,133.9z"/>
	</g>
</g>
<g id="XMLID_14_">
	<g id="XMLID_152_">
		<path fill="#9ECFEF" d="M215.9,134.1h-33c-3.3,0-6-2.7-6-6V71.6c0-3.3,2.7-6,6-6h33c3.3,0,6,2.7,6,6v56.5
			C221.9,131.4,219.2,134.1,215.9,134.1z"/>
	</g>
	<g id="XMLID_56_">
		<path fill="#0686D8" d="M215.9,134.8h-33c-3.7,0-6.8-3-6.8-6.8V71.6c0-3.7,3-6.8,6.8-6.8h33c3.7,0,6.8,3,6.8,6.8v56.5
			C222.7,131.8,219.7,134.8,215.9,134.8z M182.9,66.3c-2.9,0-5.3,2.4-5.3,5.3v56.5c0,2.9,2.4,5.3,5.3,5.3h33c2.9,0,5.3-2.4,5.3-5.3
			V71.6c0-2.9-2.4-5.3-5.3-5.3H182.9z"/>
	</g>
	<g id="XMLID_55_">
		<path fill="#5FB0E5" d="M221.9,147.8v-3.6c0-12.3-10.1-22.3-22.3-22.3l0,0c-12.3,0-22.3,10.1-22.3,22.3v3.6H221.9z"/>
	</g>
	<g id="XMLID_216_">
		<path fill="#FFFFFF" d="M193.5,143.5h11.6c5.4,0,8.5-4,8.3-10.2v-6.5c-3.2-2.5-7-4.2-11.2-4.7c-2.8,0-5.1,0.1-5.6,0.1
			c-0.1,0-0.4,0-0.7,0c-4,0.7-7.7,2.4-10.7,5v6.7C184.5,139,188.4,143.5,193.5,143.5z"/>
	</g>
	<g id="XMLID_182_">
		<path fill="#0686D8" d="M205.1,144.2h-11.6c-2.6,0-5.2-1.1-6.9-3.1c-1.8-2-2.6-4.6-2.2-7.3l0-7l0.3-0.2c3.2-2.7,7-4.5,11.1-5.1
			c0.4,0,0.7,0,0.8,0c0.3,0,1.2-0.1,5.7-0.1c4.3,0.5,8.3,2.2,11.7,4.8l0.3,0.2v6.9c0.1,3.6-0.8,6.5-2.7,8.5
			C209.8,143.4,207.6,144.2,205.1,144.2z M185.9,127.5v6.4c-0.3,2.3,0.4,4.5,1.9,6.2c1.5,1.7,3.6,2.6,5.8,2.6h11.6
			c2.2,0,3.9-0.7,5.2-2c1.6-1.7,2.4-4.2,2.3-7.4v-6.2c-3.1-2.4-6.7-3.8-10.6-4.3c-3.1,0-5,0.1-5.4,0.1c-0.1,0-0.4,0-0.8,0
			C192.3,123.6,188.8,125.1,185.9,127.5z"/>
	</g>
	<g id="XMLID_203_">
		<path fill="#0686D8" d="M222.6,147.8h-1.5v-3.6c0-11.9-9.7-21.6-21.6-21.6c-5.2,0-10.1,1.9-14.1,5.2l-1-1.1
			c4.2-3.6,9.5-5.6,15.1-5.6c12.7,0,23.1,10.4,23.1,23.1V147.8z"/>
	</g>
	<g id="XMLID_54_">
		<path fill="#0686D8" d="M180.5,134.1l-1.3-0.7c0.7-1.3,1.5-2.5,2.4-3.6l1.2,0.9C181.9,131.8,181.1,132.9,180.5,134.1z"/>
	</g>
	<g id="XMLID_53_">
		<path fill="#0686D8" d="M177.9,147.8h-1.5v-3.6c0-1.8,0.2-3.6,0.6-5.3l1.5,0.3c-0.4,1.6-0.6,3.3-0.6,4.9V147.8z"/>
	</g>
	<g id="XMLID_186_">
		<path fill="#FFFFFF" d="M199.1,130.9L199.1,130.9c-2.7,0-4.9-2.2-4.9-4.9v-10.3c0-2.7,2.2-4.9,4.9-4.9l0,0c2.7,0,4.9,2.2,4.9,4.9
			V126C204,128.7,201.8,130.9,199.1,130.9z"/>
	</g>
	<g id="XMLID_52_">
		<path fill="#0686D8" d="M204.7,127.9h-1.5v-12.1c0-2.3-1.8-4.1-4.1-4.1c-2.3,0-4.1,1.8-4.1,4.1v12.1h-1.5v-12.1
			c0-3.1,2.5-5.6,5.6-5.6c3.1,0,5.6,2.5,5.6,5.6V127.9z"/>
	</g>
	<g id="XMLID_51_">
		<path fill="#FFFFFF" d="M207.2,119.6l-3.2,1.4h-9.7l-3.2-1.4c-5.8-2.5-9.6-8.3-9.6-14.6V85.5h0.7c6.1,0,11.9-2.9,15.4-7.9l1.9-2.7
			l1.7,2.4c3.6,5.1,9.4,8.2,15.6,8.2l0,0v19.4C216.8,111.3,213,117,207.2,119.6z"/>
	</g>
	<g id="XMLID_150_">
		<path fill="#0686D8" d="M204.2,121.7h-10.1l-3.3-1.4c-6.1-2.6-10.1-8.7-10.1-15.3V85.5h1.5v19.4c0,6.1,3.6,11.5,9.2,13.9l3.1,1.3
			h9.4l3.1-1.3c5.6-2.4,9.2-7.9,9.2-13.9V85.5h1.5v19.4c0,6.7-4,12.7-10.1,15.3L204.2,121.7z"/>
	</g>
	<g id="XMLID_112_">
		<path fill="#0686D8" d="M219.9,86.3h-3.1c-6.5,0-12.5-3.2-16.2-8.5l-1.1-1.5l-1.3,1.8c-3.7,5.2-9.7,8.2-16,8.2h-3.5v-1.5h3.5
			c5.9,0,11.4-2.8,14.8-7.6l2.5-3.5l2.3,3.3c3.4,4.9,9,7.8,15,7.8h3.1V86.3z"/>
	</g>
	<g id="XMLID_50_">
		<polygon fill="#0686D8" points="201.1,105.9 196.6,105.9 196.6,89.7 198.1,89.7 198.1,104.4 200.3,104.4 201.1,103.3 202.3,104.1 
					"/>
	</g>
	<g id="XMLID_147_">
		<path fill="#0686D8" d="M190.9,94.3c-1.1,0-2.1-0.4-2.9-1.2l1.1-1.1c1,1,2.7,1,3.6,0l1.1,1.1C193,93.9,191.9,94.3,190.9,94.3z"/>
	</g>
	<g id="XMLID_49_">
		<path fill="#0686D8" d="M207.4,94.3c-1.1,0-2.1-0.4-2.9-1.2l1.1-1.1c1,1,2.7,1,3.6,0l1.1,1.1C209.5,93.9,208.5,94.3,207.4,94.3z"
			/>
	</g>
	<g id="XMLID_48_">
		<path fill="#0686D8" d="M200.5,113.5h-6.8V112h6.8c1.5,0,2.9-0.7,3.9-1.8l1.2,1C204.3,112.6,202.5,113.5,200.5,113.5z"/>
	</g>
	<g id="XMLID_38_">
		<rect x="198.4" y="135.4" fill="#0686D8" width="1.5" height="8.3"/>
	</g>
</g>
<g>
	<g id="XMLID_798_">
		<path fill="#5FB0E5" d="M233.9,177.9h-68.8c-1.7,0-3.1-1.2-3.3-2.8l-0.5-3h31.9l1.2,1.8h8.8l1.3-1.8h33.6l-0.4,2.6
			C237.4,176.6,235.8,177.9,233.9,177.9z"/>
	</g>
	<g id="XMLID_797_">
		<path fill="#0686D8" d="M233.9,178.7h-68.8c-2,0-3.7-1.5-4.1-3.5l-0.6-3.9h33.1l1.2,1.8h8l1.3-1.8H239l-0.6,3.5
			C238.1,177.1,236.2,178.7,233.9,178.7z M162.2,172.9l0.3,2.1c0.2,1.3,1.3,2.2,2.6,2.2h68.8c1.5,0,2.8-1.1,3-2.6l0.3-1.7H205
			l-1.3,1.8h-9.6l-1.2-1.8H162.2z"/>
	</g>
	<g id="XMLID_802_">
		<path fill="#FFFFFF" d="M234.2,175.1h-68.5c-0.6,0-1-0.4-1-1v-48.6c0-0.6,0.4-1,1-1h68.5c0.5,0,1,0.4,1,1v48.6
			C235.2,174.7,234.7,175.1,234.2,175.1z"/>
	</g>
	<g id="XMLID_801_">
		<rect x="207.4" y="123.7" fill="#0686D8" width="4.9" height="1.5"/>
	</g>
	<g id="XMLID_800_">
		<path fill="#0686D8" d="M233.4,175.9h-67c-1.4,0-2.5-1.1-2.5-2.5v-47.1c0-1.4,1.1-2.5,2.5-2.5h36.1v1.5h-36.1c-0.6,0-1,0.4-1,1
			v47.1c0,0.6,0.4,1,1,1h67c0.6,0,1-0.4,1-1v-47.1c0-0.6-0.4-1-1-1h-15.6v-1.5h15.6c1.4,0,2.5,1.1,2.5,2.5v47.1
			C235.9,174.8,234.8,175.9,233.4,175.9z"/>
	</g>
	<g>
		<circle fill="#D2E9F7" cx="199.9" cy="149.8" r="7.5"/>
	</g>
</g>
<g opacity="0.3">
	<path fill="#0565A2" d="M157,117.8c1.1-1,1.7-2.4,1.7-4c0-3-2.5-5.5-5.5-5.5c-0.1,0-0.2,0-0.4,0c0-0.3,0.1-0.5,0.1-0.8
		c0-3.1-2.6-5.6-5.7-5.5c-0.4-2.7-2.7-4.7-5.4-4.7c-0.7,0-1.3,0.1-2,0.4c-0.9-1.8-2.8-2.9-4.8-2.9c-0.7,0-1.4,0.1-2.1,0.4
		c-1-1.6-2.8-2.6-4.7-2.6c-2,0-3.7,1-4.7,2.7c-0.7-0.3-1.5-0.5-2.3-0.5c-1.8,0-3.5,0.9-4.6,2.4c-0.8-0.5-1.8-0.7-2.7-0.7
		c-2.8,0-5.1,2.1-5.5,4.8c-3.4-0.6-6.4,2.1-6.4,5.4c0,0,0,0,0,0.1c-2.8,0.3-4.9,2.6-4.9,5.5c0,1,0.3,1.9,0.8,2.8
		c-2,0.9-3.3,2.8-3.3,5c0,1.5,0.6,2.9,1.7,4c-0.2,0.1-0.4,0.3-0.5,0.4l0,0c-1.1,1-1.8,2.5-1.8,4.1c0,1.4,0.6,2.8,1.6,3.8
		c-1,1-1.6,2.4-1.6,3.8c0,2.8,2.1,5.1,4.9,5.5c-0.1,0.4-0.1,0.7-0.1,1.1c0,2.8,2.2,5.2,4.9,5.5c0,0.2,0,0.3,0,0.5
		c0,2.8,2.1,5.1,4.7,5.4c0,0,0,0.1,0,0.1c0,1.8,0.9,3.4,2.3,4.4c-0.5,0.5-1,1.1-1.5,1.7l-0.6-0.5c-0.9,1.1-1.7,2.3-2.4,3.6l0.7,0.4
		c-0.9,1.7-1.6,3.5-2,5.3l-0.7-0.2c-0.4,1.7-0.6,3.5-0.6,5.2v3.6h0.7v0h44.3v0h0.8v-3.6c0-6.8-3-12.9-7.6-17.1
		c1.7-0.8,2.9-2.4,3.1-4.2c2.3-0.3,4.1-2,4.6-4.3c0,0,0,0,0.1,0c3,0,5.5-2.5,5.5-5.5c0-0.9-0.2-1.7-0.6-2.5c1.5-1,2.4-2.7,2.4-4.5
		c0-1-0.3-2-0.8-2.9c1.7-1,2.8-2.8,2.8-4.8c0-1.3-0.4-2.4-1.2-3.4c0.8-1,1.2-2.2,1.2-3.4C158.7,120.3,158.1,118.9,157,117.8z"/>
</g>
<g id="XMLID_57_">
	<g id="XMLID_74_">
		<path fill="#5FB0E5" d="M155.9,121.8c0-1.7-0.9-3.1-2.1-4c1.3-0.8,2.1-2.3,2.1-4c0-2.6-2.1-4.7-4.7-4.7c-0.5,0-1,0.1-1.4,0.2
			c0.2-0.5,0.3-1.1,0.3-1.7c0-2.6-2.1-4.7-4.7-4.7c-0.3,0-0.6,0-0.9,0.1c0,0,0-0.1,0-0.1c0-2.6-2.1-4.7-4.7-4.7
			c-0.9,0-1.7,0.2-2.3,0.6c-0.6-1.9-2.4-3.2-4.5-3.2c-0.9,0-1.7,0.3-2.4,0.7c-0.7-1.7-2.4-2.9-4.4-2.9c-2,0-3.7,1.2-4.4,3
			c-0.8-0.5-1.7-0.8-2.6-0.8c-1.9,0-3.6,1.1-4.3,2.8c-0.8-0.7-1.8-1.1-3-1.1c-2.6,0-4.7,2.1-4.7,4.7c0,0.1,0,0.2,0,0.3
			c-0.5-0.2-1.1-0.3-1.6-0.3c-2.6,0-4.7,2.1-4.7,4.7c0,0.3,0,0.6,0.1,0.8c-0.1,0-0.2,0-0.3,0c-2.6,0-4.7,2.1-4.7,4.7
			c0,1.2,0.5,2.3,1.2,3.2c-2.1,0.5-3.8,2.4-3.8,4.6c0,1.8,1,3.3,2.4,4.1c-1.7,0.7-3,2.4-3,4.4c0,1.6,0.8,3,2,3.8
			c-1.2,0.9-2,2.3-2,3.8c0,2.6,2.1,4.7,4.7,4.7c0.1,0,0.3,0,0.4,0c-0.2,0.6-0.4,1.2-0.4,1.9c0,2.6,2.1,4.7,4.7,4.7
			c0.1,0,0.2,0,0.3,0c-0.1,0.4-0.2,0.8-0.2,1.2c0,2.6,2.1,4.7,4.7,4.7c0,0,0.1,0,0.1,0c0,0.3-0.1,0.5-0.1,0.8c0,2.6,2.1,4.7,4.7,4.7
			c2.6,0,4.7-2.1,4.7-4.7c2.5,0.7,5.2,1.1,8,1.1c2.9,0,5.8-0.4,8.4-1.3c0.8,1.6,2.4,2.7,4.3,2.7c2.6,0,4.7-2.1,4.7-4.7
			c2.5,0,4.5-1.9,4.7-4.4c0.2,0,0.5,0.1,0.7,0.1c2.6,0,4.7-2.1,4.7-4.7c0-1-0.3-2-0.9-2.7c1.6-0.8,2.7-2.4,2.7-4.3
			c0-1.2-0.5-2.3-1.2-3.2c1.9-0.6,3.2-2.4,3.2-4.5c0-1.3-0.6-2.5-1.5-3.4C155.4,124.3,155.9,123.1,155.9,121.8z"/>
	</g>
	<g id="XMLID_420_">
		<path fill="#0686D8" d="M111.8,159.8c-3,0-5.5-2.5-5.5-5.5c0,0,0-0.1,0-0.1c-2.7-0.4-4.7-2.7-4.7-5.4c0-0.2,0-0.3,0-0.5
			c-2.8-0.3-4.9-2.6-4.9-5.5c0-0.4,0-0.7,0.1-1.1c-2.7-0.3-4.9-2.6-4.9-5.5c0-1.4,0.6-2.8,1.6-3.8c-1-1-1.6-2.4-1.6-3.8
			c0-1.8,0.9-3.5,2.3-4.5c-1.1-1-1.8-2.5-1.8-4c0-2.2,1.3-4.2,3.3-5c-0.5-0.8-0.8-1.8-0.8-2.8c0-2.8,2.2-5.2,4.9-5.5c0,0,0,0,0-0.1
			c0-3.3,3-6,6.4-5.4c0.3-2.7,2.6-4.8,5.5-4.8c1,0,1.9,0.3,2.7,0.7c1-1.5,2.7-2.4,4.6-2.4c0.8,0,1.6,0.2,2.3,0.5
			c1-1.7,2.8-2.7,4.7-2.7c1.9,0,3.7,1,4.7,2.6c0.7-0.3,1.4-0.4,2.1-0.4c2,0,3.9,1.2,4.8,2.9c0.6-0.3,1.3-0.4,2-0.4
			c2.8,0,5.1,2.1,5.4,4.7c3.1-0.1,5.7,2.4,5.7,5.5c0,0.3,0,0.5-0.1,0.8c0.1,0,0.2,0,0.4,0c3,0,5.5,2.5,5.5,5.5c0,1.5-0.6,2.9-1.7,4
			c1.1,1,1.7,2.4,1.7,4c0,1.3-0.4,2.4-1.2,3.4c0.8,1,1.2,2.2,1.2,3.4c0,2-1.1,3.8-2.8,4.8c0.5,0.9,0.8,1.9,0.8,2.9
			c0,1.8-0.9,3.5-2.4,4.5c0.4,0.8,0.6,1.6,0.6,2.5c0,3-2.5,5.5-5.5,5.5c0,0,0,0-0.1,0c-0.5,2.2-2.4,4-4.6,4.3
			c-0.3,2.7-2.7,4.8-5.4,4.8c-1.9,0-3.7-1-4.7-2.6c-5,1.4-10.2,1.5-15.4,0.2C116.7,157.9,114.4,159.8,111.8,159.8z M108,152.7
			l-0.1,0.9c0,0.3-0.1,0.5-0.1,0.7c0,2.2,1.8,4,4,4c2.2,0,3.9-1.8,4-3.9l0-1l0.9,0.3c5.3,1.5,10.9,1.5,16-0.1l0.6-0.2l0.3,0.6
			c0.7,1.4,2.1,2.3,3.6,2.3c2.2,0,4-1.8,4-4v-0.8h0.8c2.1,0,3.8-1.6,4-3.7l0.1-0.8l0.8,0.1c0.2,0,0.4,0.1,0.6,0.1c2.2,0,4-1.8,4-4
			c0-0.8-0.3-1.6-0.7-2.3l-0.5-0.7l0.8-0.4c1.4-0.7,2.3-2,2.3-3.6c0-1-0.4-1.9-1.1-2.7l-0.8-0.8l1.1-0.4c1.6-0.5,2.7-2.1,2.7-3.8
			c0-1.1-0.4-2.1-1.2-2.9l-0.6-0.5l0.6-0.5c0.8-0.8,1.2-1.8,1.2-2.9c0-1.3-0.7-2.6-1.8-3.3l-1-0.6l1-0.6c1.1-0.7,1.8-2,1.8-3.3
			c0-2.2-1.8-4-4-4c-0.4,0-0.7,0.1-1.2,0.2l-1.5,0.5l0.6-1.5c0.2-0.5,0.3-1,0.3-1.5c0-2.2-1.8-4-4-4c-0.3,0-0.5,0-0.8,0.1l-0.9,0.2
			l0-1.1c0-2.1-1.8-3.9-4-3.9c-0.7,0-1.3,0.2-2,0.5l-0.8,0.5l-0.3-0.9c-0.6-1.6-2.1-2.7-3.8-2.7c-0.7,0-1.4,0.2-2,0.6l-0.7,0.4
			l-0.3-0.8c-0.6-1.5-2.1-2.4-3.7-2.4c-1.6,0-3.1,1-3.7,2.5l-0.3,0.9l-0.8-0.5c-0.7-0.4-1.4-0.7-2.2-0.7c-1.6,0-3,0.9-3.6,2.3
			l-0.4,0.9l-0.8-0.6c-0.7-0.6-1.6-0.9-2.5-0.9c-2.2,0-4,1.8-4,4c0,0.1,0,0.2,0,0.3l0.1,1.2l-1.1-0.4c-2.8-1-5.4,1.1-5.4,3.7
			c0,0.2,0,0.4,0.1,0.7l0.2,0.9l-0.9-0.1c-0.1,0-0.1,0-0.2,0c0,0,0,0,0,0c-2.2,0-4,1.8-4,4c0,1,0.4,1.9,1,2.7l0.9,1l-1.3,0.3
			c-1.8,0.4-3.2,2-3.2,3.9c0,1.4,0.8,2.7,2,3.4l1.3,0.8l-1.4,0.6c-1.5,0.6-2.5,2.1-2.5,3.7c0,1.3,0.6,2.5,1.7,3.2l0.8,0.6l-0.8,0.6
			c-1.1,0.8-1.7,1.9-1.7,3.2c0,2.2,1.8,4,4,4c0,0,0.1,0,0.1,0c0.1,0,0.1,0,0.2,0l1.2-0.1l-0.5,1.1c-0.2,0.5-0.3,1-0.3,1.6
			c0,2.2,1.8,4,4,4c0,0,0.1,0,0.1,0c0.1,0,0.1,0,0.2,0l1.1-0.1l-0.3,1c-0.1,0.4-0.2,0.7-0.2,1c0,2.2,1.8,4,4,4L108,152.7z"/>
	</g>
	<g id="XMLID_73_">
		<path fill="#D2E9F7" d="M146.5,177.9v-3.6c0-12.2-10-22.2-22.2-22.2l0,0c-12.2,0-22.2,10-22.2,22.2v3.6H146.5z"/>
	</g>
	<g id="XMLID_72_">
		<path fill="#9ECFEF" d="M146.5,177.9v-3.6c0-12.2-10-22.2-22.2-22.2l0,0c-12.2,0-22.2,10-22.2,22.2v3.6H146.5z"/>
	</g>
	<g id="XMLID_69_">
		<path fill="#FFFFFF" d="M137.2,156.4c-3.6-2.6-8.1-4.2-12.9-4.2c-5.2,0-10.1,1.8-13.9,4.9l0,0c0,3.8,3.1,6.8,6.8,6.8h13.1
			c3.8,0,6.8-3.1,6.8-6.8V156.4z"/>
	</g>
	<g id="XMLID_442_">
		<path fill="#0686D8" d="M130.4,164.7h-13.1c-4.2,0-7.6-3.4-7.6-7.6v-0.4l0.3-0.2c4.1-3.3,9.2-5.1,14.3-5.1c4.8,0,9.4,1.5,13.4,4.4
			l0.3,0.2v1.1C138,161.3,134.6,164.7,130.4,164.7z M111.2,157.4c0.2,3.2,2.8,5.7,6.1,5.7h13.1c3.4,0,6.1-2.7,6.1-6.1v-0.3
			c-3.6-2.5-7.8-3.8-12.2-3.8C119.6,152.9,115,154.5,111.2,157.4z"/>
	</g>
	<g id="XMLID_441_">
		<path fill="#0686D8" d="M147.2,177.9h-1.5v-3.6c0-11.8-9.6-21.4-21.4-21.4c-5.1,0-10.1,1.8-13.9,5.2l-1-1.1
			c4.2-3.6,9.5-5.6,14.9-5.6c12.6,0,22.9,10.3,22.9,22.9V177.9z"/>
	</g>
	<g id="XMLID_434_">
		<path fill="#0686D8" d="M105.4,164.3l-1.3-0.7c0.7-1.3,1.5-2.5,2.4-3.6l1.2,0.9C106.8,162,106,163.1,105.4,164.3z"/>
	</g>
	<g id="XMLID_433_">
		<path fill="#0686D8" d="M102.9,177.9h-1.5v-3.6c0-1.8,0.2-3.5,0.6-5.2l1.5,0.3c-0.4,1.6-0.6,3.2-0.6,4.9V177.9z"/>
	</g>
	<g id="XMLID_432_">
		<path fill="#FFFFFF" d="M123.9,141.3c-2.7,0-4.8,2.2-4.8,4.8v10.2h9.7v-10.2C128.7,143.4,126.6,141.3,123.9,141.3z"/>
	</g>
	<g id="XMLID_431_">
		<path fill="#0686D8" d="M129.5,156.3H128v-10.2c0-2.2-1.8-4.1-4.1-4.1c-2.2,0-4.1,1.8-4.1,4.1v10.2h-1.5v-10.2
			c0-3.1,2.5-5.6,5.6-5.6c3.1,0,5.6,2.5,5.6,5.6V156.3z"/>
	</g>
	<g id="XMLID_430_">
		<path fill="#FFFFFF" d="M142,141l1.5-16.9c0.1-13-6.1-14.4-13.7-14.4h-12H117c-6.4,0-11.5,5.4-11.5,12.1l1.6,19.3
			c0.2,1.9,1.2,3.5,2.8,4.4l12.3,6.3c1.1,0.6,2.3,0.6,3.4,0l13.4-6.4C140.7,144.6,141.8,142.9,142,141z"/>
	</g>
	<g id="XMLID_429_">
		<path fill="#0686D8" d="M124,152.8c-0.7,0-1.4-0.2-2.1-0.5l-12.3-6c-1.8-0.9-3.1-2.7-3.3-4.8l-1.6-20.2c0-6.8,5.5-12.3,12.3-12.3
			h12.9c4.1,0,8.4,0.4,11.1,3.2c2.3,2.3,3.4,6,3.3,11.3l-1.6,18c-0.2,2.1-1.5,3.9-3.4,4.8l-13.4,6.1
			C125.3,152.6,124.6,152.8,124,152.8z M117,110.5c-5.9,0-10.8,4.8-10.8,10.8l1.6,20.1c0.1,1.5,1.1,2.9,2.4,3.5l12.3,6
			c0.9,0.4,1.9,0.4,2.8,0l13.4-6.1c1.4-0.6,2.4-2,2.5-3.5l1.5-18c0-4.8-0.9-8.1-2.9-10.1c-2.3-2.3-5.7-2.7-10.1-2.7H117z"/>
	</g>
	<g id="XMLID_421_">
		<path fill="#0686D8" d="M127.2,143.8h-6c-1.3,0-2.6-0.5-3.6-1.3l-1.3-1.1l1-1.2l1.3,1.1c0.8,0.6,1.7,1,2.7,1h6c1,0,1.9-0.3,2.7-1
			l1.3-1.1l1,1.2l-1.3,1.1C129.8,143.4,128.5,143.8,127.2,143.8z"/>
	</g>
	<g id="XMLID_67_">
		<path fill="#5FB0E5" d="M140.7,110.6c-1.2,0-2.3,0.5-3.2,1.3c-0.8-0.8-2-1.3-3.2-1.3c-1.3,0-2.4,0.5-3.3,1.3
			c-0.9-0.8-2-1.3-3.3-1.3c-1.8,0-3.3,1-4.1,2.4c-0.7-0.5-1.6-0.8-2.6-0.8c-1.1,0-2.1,0.4-2.9,1c-0.5-2.1-2.4-3.6-4.6-3.6
			c-1.5,0-2.9,0.7-3.7,1.8c-0.8-0.6-1.7-0.9-2.8-0.9c-2.6,0-4.7,2.1-4.7,4.7c0,2.6,2.1,4.7,4.7,4.7c1.5,0,2.9-0.7,3.7-1.8
			c0.8,0.6,1.7,0.9,2.8,0.9c1.1,0,2.1-0.4,2.9-1c0.5,2.1,2.4,3.6,4.6,3.6c1.8,0,3.3-1,4.1-2.4c0.7,0.5,1.6,0.8,2.6,0.8
			c1.3,0,2.4-0.5,3.3-1.3c0.9,0.8,2,1.3,3.3,1.3c1.2,0,2.3-0.5,3.2-1.3c0.8,0.8,2,1.3,3.2,1.3c2.6,0,4.7-2.1,4.7-4.7
			S143.3,110.6,140.7,110.6z"/>
	</g>
	<g id="XMLID_64_">
		<path fill="#0686D8" d="M121.1,122.5c-2.2,0-4.1-1.3-5-3.2c-1.6,0.8-3.6,0.8-5.2-0.1c-1,1-2.4,1.6-3.9,1.6c-3,0-5.5-2.5-5.5-5.5
			h1.5c0,2.2,1.8,4,4,4c1.2,0,2.4-0.6,3.1-1.6l0.4-0.6l0.6,0.4c1.4,1,3.4,1,4.8-0.1l0.9-0.7l0.3,1.1c0.4,1.8,2,3,3.9,3
			c1.4,0,2.8-0.8,3.5-2.1l0.4-0.7l0.7,0.4c1.5,1,3.6,0.8,4.9-0.5l0.5-0.5l0.5,0.5c1.5,1.4,3.9,1.4,5.4,0l0.5-0.5l0.5,0.5
			c0.7,0.7,1.7,1.1,2.7,1.1c2.2,0,4-1.8,4-4h1.5c0,3-2.5,5.5-5.5,5.5c-1.1,0-2.3-0.4-3.2-1c-1.9,1.4-4.6,1.3-6.5,0
			c-1.6,1.2-3.8,1.4-5.6,0.6C124.4,121.7,122.8,122.5,121.1,122.5z"/>
	</g>
	<g id="XMLID_63_">
		<ellipse fill="#5FB0E5" cx="127.2" cy="109.7" rx="19.5" ry="4.8"/>
	</g>
	<g id="XMLID_62_">
		<path fill="#0686D8" d="M109.4,118.1c-1-1-1.6-2.4-1.6-3.9c0-1.5,0.6-2.8,1.6-3.9c1-1,2.4-1.6,3.9-1.6v1.5c-1.1,0-2.1,0.4-2.8,1.2
			c-0.8,0.8-1.2,1.8-1.2,2.8c0,1.1,0.4,2.1,1.2,2.8L109.4,118.1z"/>
	</g>
	<g id="XMLID_61_">
		<path fill="#0686D8" d="M124.1,110.7c-1-1-1.6-2.4-1.6-3.9c0-1.5,0.6-2.8,1.6-3.9c1-1,2.4-1.6,3.9-1.6v1.5c-1.1,0-2.1,0.4-2.8,1.2
			c-0.8,0.8-1.2,1.8-1.2,2.8c0,1.1,0.4,2.1,1.2,2.8L124.1,110.7z"/>
	</g>
	<g id="XMLID_423_">
		<path fill="#0686D8" d="M119.6,126.9c-1.5-1.5-4.1-1.5-5.6,0l-1.1-1.1c1-1,2.4-1.6,3.9-1.6s2.8,0.6,3.9,1.6L119.6,126.9z"/>
	</g>
	<g id="XMLID_422_">
		<path fill="#0686D8" d="M136,126.9c-0.8-0.8-1.8-1.2-2.8-1.2c-1.1,0-2.1,0.4-2.8,1.2l-1.1-1.1c1-1,2.4-1.6,3.9-1.6
			s2.8,0.6,3.9,1.6L136,126.9z"/>
	</g>
	<g id="XMLID_428_">
		<path fill="#0686D8" d="M101.4,132.3l-1.1-1.1c0.8-0.8,1.2-1.8,1.2-2.8c0-1.1-0.4-2.1-1.2-2.8c-1.5-1.5-4.1-1.5-5.6,0l-1.1-1.1
			c1-1,2.4-1.6,3.9-1.6s2.8,0.6,3.9,1.6s1.6,2.4,1.6,3.9C103.1,129.9,102.5,131.3,101.4,132.3z"/>
	</g>
	<g id="XMLID_60_">
		<path fill="#0686D8" d="M140.5,112c-1.1-1-1.7-2.3-1.8-3.8c-0.1-1.5,0.4-2.9,1.4-4c1-1.1,2.3-1.7,3.8-1.8l0.1,1.5
			c-1.1,0.1-2,0.5-2.8,1.3c-0.7,0.8-1.1,1.8-1,2.9c0.1,1.1,0.5,2,1.3,2.8L140.5,112z"/>
	</g>
	<g id="XMLID_59_">
		<path fill="#0686D8" d="M146.7,148.5c-1.1-1-1.7-2.3-1.8-3.8c-0.1-1.5,0.4-2.9,1.4-4l1.1,1c-0.7,0.8-1.1,1.8-1,2.9
			c0.1,1.1,0.5,2,1.3,2.8L146.7,148.5z"/>
	</g>
	<g id="XMLID_58_">
		<path fill="#0686D8" d="M107.5,109.4l-1.1-1.1c0.8-0.8,1.2-1.8,1.2-2.8s-0.4-2.1-1.2-2.8l1.1-1.1c1,1,1.6,2.4,1.6,3.9
			S108.5,108.3,107.5,109.4z"/>
	</g>
	<g id="XMLID_427_">
		<path fill="#0686D8" d="M107.5,154.1l-1.1-1.1c0.8-0.8,1.2-1.8,1.2-2.8c0-1.1-0.4-2.1-1.2-2.8l1.1-1.1c1,1,1.6,2.4,1.6,3.9
			C109.1,151.7,108.5,153,107.5,154.1z"/>
	</g>
	<g id="XMLID_447_">
		<path fill="#0686D8" d="M149.4,129.2l-1.4-0.5c0.5-1.4,1.5-2.5,2.8-3.2s2.8-0.7,4.2-0.3l-0.5,1.4c-1-0.3-2.1-0.3-3,0.2
			C150.4,127.4,149.7,128.2,149.4,129.2z"/>
	</g>
	<g id="XMLID_426_">
		<path fill="#0686D8" d="M126.1,118.9l-1.1-1.1c0.8-0.8,1.2-1.8,1.2-2.8h1.5C127.7,116.5,127.1,117.9,126.1,118.9z"/>
	</g>
	<g id="XMLID_448_">
		<polygon fill="#0686D8" points="127.3,136.7 121.7,136.7 121.7,130.9 123.2,130.9 123.2,135.2 125.8,135.2 125.8,134.3 
			127.3,134.3 		"/>
	</g>
</g>
<g opacity="0.3">
	<path fill="#0565A2" d="M262.2,124.3c-2.9,0-5.6,0.5-8.1,1.5c-1-1.6-4.6-2.3-10.8-1.9c-1,0.1-1.9,0.9-1.9,1.9
		c-0.4,5.9,0.2,9.5,1.7,10.7c-0.7,1.7-1,3.6-1,5.6c0,1.8,0.3,3.5,0.9,5.2c0,0,0,0,0,0c0,0.2,0.1,0.4,0.2,0.5c0.8,2.1,2,4,3.6,5.6
		c-2,2.9-3.3,6.5-3.3,10.3v4.3h0.8v0.5h-1.9c-1.6,0-2.9,1.3-2.9,2.9v3.9c0,1.1,0.7,2,1.7,2.3c0.5,0.1,0.9,0.1,1.4,0
		c0.4,0.5,1.1,0.9,1.8,0.9c0.5,0,0.9-0.2,1.3-0.4h7.4h12.1v0h0.9v-53.3C264.8,124.4,263.5,124.3,262.2,124.3z"/>
</g>
<g>
	<path fill="#FFFFFF" d="M263.6,146.3L263.6,146.3c-9.5,0-17.3,7.8-17.3,17.3v14.3h34.7v-14.3C280.9,154.1,273.1,146.3,263.6,146.3z
		"/>
	<path fill="#5FB0E5" d="M263.6,162.1c-4.8,0-8.7,3.9-8.7,8.7v7.1h17.3v-7.1C272.3,166,268.4,162.1,263.6,162.1z"/>
	<g>
		<path fill="#0686D8" d="M281.7,167.9h-1.5v-4.3c0-9.1-7.4-16.6-16.6-16.6c-9.1,0-16.6,7.4-16.6,16.6v4.3h-1.5v-4.3
			c0-10,8.1-18.1,18.1-18.1c10,0,18.1,8.1,18.1,18.1V167.9z"/>
	</g>
	<g>
		<g>
			<path fill="#9ECFEF" d="M246,136.1c-2.2-0.7-2-7.5-1.8-10.2c0-0.7,0.6-1.2,1.2-1.2c2.7-0.2,9.5-0.4,10.2,1.8L246,136.1z"/>
		</g>
		<g>
			<path fill="#FFFFFF" d="M246.8,127.6c0-0.7,0.6-1.2,1.2-1.2c1.7-0.1,5.1-0.2,7.5,0.3l0.2-0.2c-0.7-2.2-7.5-2-10.2-1.8
				c-0.7,0-1.2,0.6-1.2,1.2c-0.2,2.7-0.4,9.5,1.8,10.2l1-1C246.6,132.6,246.7,129.3,246.8,127.6z"/>
		</g>
		<g>
			<path fill="#9ECFEF" d="M282.4,136.1c2.2-0.7,2-7.5,1.8-10.2c0-0.7-0.6-1.2-1.2-1.2c-2.7-0.2-9.5-0.4-10.2,1.8L282.4,136.1z"/>
		</g>
		<g>
			<path fill="#FFFFFF" d="M284.3,125.8c0-0.7-0.6-1.2-1.2-1.2c-2.7-0.2-9.5-0.4-10.2,1.8l0.2,0.2c2.4-0.5,5.7-0.4,7.5-0.3
				c0.7,0,1.2,0.6,1.2,1.2c0.1,1.7,0.2,5.1-0.3,7.5l1,1C284.6,135.4,284.4,128.6,284.3,125.8z"/>
		</g>
		<g>
			<path fill="#0686D8" d="M246.2,137l-0.4-0.1c-2-0.6-2.7-4.3-2.3-11c0.1-1,0.9-1.8,1.9-1.9c6.7-0.4,10.4,0.4,11,2.3l0.1,0.4
				L246.2,137z M248.3,125.3c-0.9,0-1.9,0-2.9,0.1c-0.3,0-0.5,0.2-0.5,0.5c-0.3,5.3,0.2,8.4,1,9.2l8.8-8.8
				C254,125.8,251.9,125.3,248.3,125.3z"/>
		</g>
		<g>
			<path fill="#0686D8" d="M282.2,137l-10.3-10.3l0.1-0.4c0.6-2,4.3-2.7,11-2.3c1,0.1,1.8,0.9,1.9,1.9c0.4,6.7-0.4,10.4-2.3,11
				L282.2,137z M273.8,126.4l8.8,8.8c0.7-0.9,1.3-3.9,1-9.2c0-0.3-0.2-0.5-0.5-0.5C277.7,125.1,274.6,125.6,273.8,126.4z"/>
		</g>
		<g>
			<ellipse fill="#FFFFFF" cx="264.2" cy="142" rx="19.3" ry="17"/>
		</g>
		<g>
			<path fill="#0686D8" d="M259.6,153.5c-1.4,0-2.7-0.5-3.6-1.5l1.1-1.1c1.4,1.4,3.7,1.4,5.1,0c0.7-0.7,1.1-1.6,1.1-2.6h1.5
				c0,1.4-0.5,2.6-1.5,3.6C262.2,152.9,261,153.5,259.6,153.5z"/>
		</g>
		<g>
			<path fill="#0686D8" d="M268.3,153.5c-1.4,0-2.7-0.5-3.6-1.5c-1-1-1.5-2.2-1.5-3.6h1.5c0,1,0.4,1.9,1.1,2.6
				c1.4,1.4,3.7,1.4,5.1,0l1.1,1.1C270.9,152.9,269.7,153.5,268.3,153.5z"/>
		</g>
		<g>
			<path fill="#5FB0E5" d="M263.4,148.9l-2-2.1c-0.7-0.7-0.2-2,0.8-2h4.1c1,0,1.6,1.3,0.8,2l-2,2.1
				C264.6,149.3,263.8,149.3,263.4,148.9l-2-2.1c-0.7-0.7-0.2-2,0.8-2h4.1c1,0,1.6,1.3,0.8,2l-2,2.1
				C264.6,149.3,263.8,149.3,263.4,148.9z"/>
		</g>
		<g>
			<path fill="#0686D8" d="M254.2,139.8l-1.1-1.1c0.9-0.9,2.1-1.4,3.3-1.4c1.3,0,2.5,0.5,3.3,1.4l-1.1,1.1
				C257.6,138.5,255.4,138.5,254.2,139.8z"/>
		</g>
		<g>
			<path fill="#5FB0E5" d="M266.5,125.3c-0.2,0-0.4,0-0.7,0c-1.4,2.2-2.3,4.8-2.3,7.6c0,7.8,6.3,14.1,14.1,14.1
				c1.9,0,3.8-0.4,5.4-1.1c0.7-1.6,1-3.4,1-5.2C284.1,132.2,276.2,125.3,266.5,125.3z"/>
		</g>
		<g>
			<path fill="#0686D8" d="M264.2,159.8c-11.1,0-20.1-8-20.1-17.7c0-9.8,9-17.7,20.1-17.7c11.1,0,20.1,8,20.1,17.7
				C284.3,151.8,275.3,159.8,264.2,159.8z M264.2,125.8c-10.2,0-18.6,7.3-18.6,16.2s8.3,16.2,18.6,16.2c10.2,0,18.6-7.3,18.6-16.2
				S274.4,125.8,264.2,125.8z"/>
		</g>
		<g>
			<path fill="#0686D8" d="M273.7,139.8c-1.2-1.2-3.4-1.2-4.6,0l-1.1-1.1c0.9-0.9,2.1-1.4,3.3-1.4c1.3,0,2.5,0.5,3.3,1.4
				L273.7,139.8z"/>
		</g>
		<g>
			<path fill="#0686D8" d="M251.3,143.7h-5.5c-0.4,0-0.8-0.3-0.8-0.8c0-0.4,0.3-0.8,0.8-0.8h5.5c0.4,0,0.8,0.3,0.8,0.8
				C252,143.3,251.7,143.7,251.3,143.7z"/>
		</g>
		<g>
			<path fill="#0686D8" d="M251.3,148h-5.5c-0.4,0-0.8-0.3-0.8-0.8c0-0.4,0.3-0.8,0.8-0.8h5.5c0.4,0,0.8,0.3,0.8,0.8
				C252,147.6,251.7,148,251.3,148z"/>
		</g>
		<g>
			<path fill="#0686D8" d="M253.5,145.8h-7.7c-0.4,0-0.8-0.3-0.8-0.8c0-0.4,0.3-0.8,0.8-0.8h7.7c0.4,0,0.8,0.3,0.8,0.8
				C254.2,145.5,253.9,145.8,253.5,145.8z"/>
		</g>
		<g>
			<path fill="#0686D8" d="M283.1,143.7h-5.5c-0.4,0-0.8-0.3-0.8-0.8c0-0.4,0.3-0.8,0.8-0.8h5.5c0.4,0,0.8,0.3,0.8,0.8
				C283.8,143.3,283.5,143.7,283.1,143.7z"/>
		</g>
		<g>
			<path fill="#0686D8" d="M282.6,148h-5.1c-0.4,0-0.8-0.3-0.8-0.8c0-0.4,0.3-0.8,0.8-0.8h5.1c0.4,0,0.8,0.3,0.8,0.8
				C283.3,147.6,283,148,282.6,148z"/>
		</g>
		<g>
			<path fill="#0686D8" d="M283.1,145.8h-7.7c-0.4,0-0.8-0.3-0.8-0.8c0-0.4,0.3-0.8,0.8-0.8h7.7c0.4,0,0.8,0.3,0.8,0.8
				C283.8,145.5,283.5,145.8,283.1,145.8z"/>
		</g>
	</g>
	<g>
		<g>
			<path fill="#FFFFFF" d="M243.7,176.9L243.7,176.9c-0.9,0-1.6-0.7-1.6-1.6v-3.6c0-0.9,0.7-1.6,1.6-1.6l0,0c0.9,0,1.6,0.7,1.6,1.6
				v3.6C245.3,176.2,244.6,176.9,243.7,176.9z"/>
		</g>
		<g>
			<path fill="#FFFFFF" d="M248.8,176.9L248.8,176.9c-0.9,0-1.6-0.7-1.6-1.6v-3.6c0-0.9,0.7-1.6,1.6-1.6l0,0c0.9,0,1.6,0.7,1.6,1.6
				v3.6C250.4,176.2,249.7,176.9,248.8,176.9z"/>
		</g>
		<g>
			<path fill="#FFFFFF" d="M246.3,177.6L246.3,177.6c-0.9,0-1.6-0.7-1.6-1.6v-4.3c0-0.9,0.7-1.6,1.6-1.6l0,0c0.9,0,1.6,0.7,1.6,1.6
				v4.3C247.8,176.9,247.1,177.6,246.3,177.6z"/>
		</g>
		<g>
			<path fill="#FFFFFF" d="M247.9,169.2h-3.3c-1.4,0-2.5,1.1-2.5,2.5v0.4c0,1.4,1.1,2.5,2.5,2.5h3.3c1.4,0,2.5-1.1,2.5-2.5v-0.4
				C250.4,170.3,249.3,169.2,247.9,169.2z"/>
		</g>
		<g>
			<path fill="#0686D8" d="M246.3,178.4c-0.7,0-1.4-0.3-1.8-0.9c-0.4,0.2-0.9,0.2-1.4,0c-1-0.3-1.7-1.2-1.7-2.3v-3.9
				c0-1.6,1.3-2.9,2.9-2.9h3.9c1.6,0,2.9,1.3,2.9,2.9v3.9c0,1.1-0.7,2-1.7,2.3c-0.5,0.1-0.9,0.1-1.4,0
				C247.6,178,247,178.4,246.3,178.4z M244.6,175.9c0.4,0,0.7,0.2,0.9,0.6c0.3,0.5,1.1,0.5,1.4,0c0.3-0.5,0.9-0.7,1.5-0.4
				c0.1,0.1,0.3,0.1,0.6,0.1c0.3-0.1,0.6-0.5,0.6-0.9v-3.9c0-0.8-0.6-1.4-1.4-1.4h-3.9c-0.8,0-1.4,0.6-1.4,1.4v3.9
				c0,0.4,0.3,0.8,0.6,0.9c0.2,0.1,0.4,0,0.6-0.1C244.3,175.9,244.4,175.9,244.6,175.9z"/>
		</g>
	</g>
	<g>
		<g>
			<path fill="#FFFFFF" d="M278.4,176.9L278.4,176.9c-0.9,0-1.6-0.7-1.6-1.6v-3.6c0-0.9,0.7-1.6,1.6-1.6l0,0c0.9,0,1.6,0.7,1.6,1.6
				v3.6C280,176.2,279.3,176.9,278.4,176.9z"/>
		</g>
		<g>
			<path fill="#FFFFFF" d="M283.5,176.9L283.5,176.9c-0.9,0-1.6-0.7-1.6-1.6v-3.6c0-0.9,0.7-1.6,1.6-1.6l0,0c0.9,0,1.6,0.7,1.6,1.6
				v3.6C285.1,176.2,284.4,176.9,283.5,176.9z"/>
		</g>
		<g>
			<path fill="#FFFFFF" d="M280.9,177.6L280.9,177.6c-0.9,0-1.6-0.7-1.6-1.6v-4.3c0-0.9,0.7-1.6,1.6-1.6h0c0.9,0,1.6,0.7,1.6,1.6
				v4.3C282.5,176.9,281.8,177.6,280.9,177.6z"/>
		</g>
		<g>
			<path fill="#FFFFFF" d="M282.6,169.2h-3.3c-1.4,0-2.5,1.1-2.5,2.5v0.4c0,1.4,1.1,2.5,2.5,2.5h3.3c1.4,0,2.5-1.1,2.5-2.5v-0.4
				C285.1,170.3,283.9,169.2,282.6,169.2z"/>
		</g>
		<g>
			<path fill="#0686D8" d="M280.9,178.4c-0.7,0-1.4-0.3-1.8-0.9c-0.4,0.2-0.9,0.2-1.4,0c-1-0.3-1.7-1.2-1.7-2.3v-3.9
				c0-1.6,1.3-2.9,2.9-2.9h3.9c1.6,0,2.9,1.3,2.9,2.9v3.9c0,1.1-0.7,2-1.7,2.3c-0.5,0.1-0.9,0.1-1.4,0
				C282.3,178,281.6,178.4,280.9,178.4z M279.3,175.9c0.4,0,0.7,0.2,0.9,0.5c0.3,0.5,1.1,0.5,1.4,0c0.3-0.5,0.9-0.7,1.5-0.4
				c0.2,0.1,0.4,0.1,0.6,0.1c0.3-0.1,0.6-0.5,0.6-0.9v-3.9c0-0.8-0.6-1.4-1.4-1.4H279c-0.8,0-1.4,0.6-1.4,1.4v3.9
				c0,0.4,0.3,0.8,0.6,0.9c0.2,0.1,0.4,0,0.6-0.1C278.9,175.9,279.1,175.9,279.3,175.9z"/>
		</g>
	</g>
</g>
<g id="XMLID_318_">
	<g id="XMLID_325_">
		<path fill="#9ECFEF" d="M87.8,155.6H66.3v6.5c0,4.6,1.7,9.1,4.9,12.5l0,0v3.3h11.7v-3.3l0,0c3.1-3.4,4.9-7.9,4.9-12.5V155.6z"/>
	</g>
	<g id="XMLID_324_">
		<path fill="#D2E9F7" d="M83.1,155.6v6.5c0,4.6-1.7,9.1-4.9,12.5v0v3.3h2.5v-3.3v0c3.1-3.4,4.9-7.9,4.9-12.5v-6.5H83.1z"/>
	</g>
	<g id="XMLID_327_">
		<path fill="#0686D8" d="M83.4,178.7H70.2V175c-3.2-3.5-4.9-8.1-4.9-12.8v-7.3h23v7.3c0,1.4-0.1,2.8-0.4,4.1l-1.5-0.3
			c0.3-1.2,0.4-2.5,0.4-3.8v-5.8h-20v5.8c0,4.5,1.7,8.8,4.7,12l0.2,0.2v2.8h10.2v-2.8l0.2-0.2c0.6-0.6,1.1-1.3,1.6-2l1.2,0.8
			c-0.5,0.7-1,1.3-1.5,2V178.7z"/>
	</g>
	<g id="XMLID_323_">
		<path fill="#0686D8" d="M85.7,171.7l-1.3-0.7c0.6-1,1.1-2.1,1.5-3.3l1.4,0.5C86.9,169.4,86.4,170.6,85.7,171.7z"/>
	</g>
	<g id="XMLID_322_">
		<path fill="#0686D8" d="M67.1,168.7h-3.5c-2.9,0-5.3-2.4-5.3-5.3c0-2.9,2.4-5.3,5.3-5.3h2.3v1.5h-2.3c-2.1,0-3.8,1.7-3.8,3.8
			c0,2.1,1.7,3.8,3.8,3.8h3.5V168.7z"/>
	</g>
	<g id="XMLID_320_">
		<path fill="#0686D8" d="M74.8,153.2h-1.5V152c0-2.3,1.9-4.2,4.2-4.2h3.2c0.3,0,0.5-0.2,0.5-0.5c0-0.3-0.2-0.5-0.5-0.5h-10
			c-1,0-1.9-0.8-1.9-1.9c0-1,0.8-1.9,1.9-1.9h4.2v1.5h-4.2c-0.2,0-0.4,0.2-0.4,0.4c0,0.2,0.2,0.4,0.4,0.4h10c1.1,0,2,0.9,2,2
			c0,1.1-0.9,2-2,2h-3.2c-1.5,0-2.7,1.2-2.7,2.7V153.2z"/>
	</g>
	<g id="XMLID_319_">
		<path fill="#0686D8" d="M80.2,144.8h-3.6v-1.5h3.6c0.3,0,0.5-0.2,0.5-0.5c0-0.3-0.2-0.5-0.5-0.5H71c-1.2,0-2.1-1-2.1-2.1
			c0-1.2,1-2.1,2.1-2.1h13.5v1.5H71c-0.3,0-0.6,0.3-0.6,0.6c0,0.3,0.3,0.6,0.6,0.6h9.3c1.1,0,2,0.9,2,2
			C82.3,143.9,81.4,144.8,80.2,144.8z"/>
	</g>
</g>
<g>
	<g>
		<path fill="#D2E9F7" d="M336.4,148.7v-7.1c0-1.8-1.4-3.2-3.2-3.2h-1.5c-1.8,0-3.2,1.4-3.2,3.2v7.1h0c-2.6,0-4.7,2.1-4.7,4.7v24.5
			h17.4v-24.5C341.1,150.8,339,148.7,336.4,148.7L336.4,148.7z"/>
	</g>
	<g>
		<path fill="#FFFFFF" d="M334.6,148.7v-7.1c0-1.7-1.4-3.1-3.1-3.2c-0.7,0-1.3,0.2-1.8,0.6c0.8,0.6,1.3,1.5,1.3,2.6v7.1
			c2.6,0,4.7,2.1,4.7,4.7v24.5h3.5v-24.5C339.4,150.8,337.3,148.7,334.6,148.7z"/>
	</g>
	<g>
		<rect x="328.5" y="146.7" fill="#5FB0E5" width="7.9" height="2.1"/>
	</g>
	<g>
		<path fill="#0686D8" d="M341.9,178.7H323v-25.2c0-2.8,2.1-5.1,4.7-5.4v-6.4c0-2.2,1.8-3.9,3.9-3.9h1.5c2.2,0,3.9,1.8,3.9,3.9v6.4
			c2.7,0.4,4.7,2.7,4.7,5.4V178.7z M324.5,177.2h15.9v-23.7c0-2.2-1.8-4-4-4h-0.8v-7.9c0-1.4-1.1-2.4-2.4-2.4h-1.5
			c-1.4,0-2.4,1.1-2.4,2.4v7.9h-0.8c-2.2,0-4,1.8-4,4V177.2z"/>
	</g>
	<g>
		<rect x="327.9" y="141.1" fill="#5FB0E5" width="9.1" height="4.6"/>
	</g>
	<g>
		<path fill="#0686D8" d="M336.1,146.4h-7.4c-0.9,0-1.6-0.7-1.6-1.6V142c0-0.9,0.7-1.6,1.6-1.6h7.4c0.9,0,1.6,0.7,1.6,1.6v2.9
			C337.7,145.7,337,146.4,336.1,146.4z M328.7,141.9C328.7,141.9,328.6,141.9,328.7,141.9l-0.1,3c0,0.1,0,0.1,0.1,0.1h7.4
			c0.1,0,0.1,0,0.1-0.1V142c0-0.1,0-0.1-0.1-0.1H328.7z"/>
	</g>
</g>
<g id="XMLID_12_">
	<g id="XMLID_178_">
		<rect x="290.4" y="167.9" fill="#FFFFFF" width="45.5" height="10"/>
	</g>
	<g id="XMLID_159_">
		<path fill="#0686D8" d="M336.6,178.7h-47v-11.5h47V178.7z M291.1,177.2h44v-8.5h-44V177.2z"/>
	</g>
	<g id="XMLID_155_">
		<rect x="328.5" y="167.9" fill="#0686D8" width="1.5" height="5"/>
	</g>
	<g id="XMLID_110_">
		<rect x="320.4" y="167.9" fill="#0686D8" width="1.5" height="5"/>
	</g>
	<g id="XMLID_107_">
		<rect x="312.2" y="167.9" fill="#0686D8" width="1.5" height="5"/>
	</g>
	<g id="XMLID_100_">
		<rect x="304" y="167.9" fill="#0686D8" width="1.5" height="5"/>
	</g>
	<g id="XMLID_97_">
		<rect x="295.9" y="167.9" fill="#0686D8" width="1.5" height="5"/>
	</g>
</g>
<g id="XMLID_5_">
	<rect x="7.2" y="177.2" fill="#0686D8" width="381.8" height="1.5"/>
</g>
</svg>
