<?xml version="1.0" encoding="utf-8"?>
<!-- Generator: Adobe Illustrator 18.0.0, SVG Export Plug-In . SVG Version: 6.00 Build 0)  -->
<!DOCTYPE svg PUBLIC "-//W3C//DTD SVG 1.1//EN" "http://www.w3.org/Graphics/SVG/1.1/DTD/svg11.dtd">
<svg version="1.1" xmlns="http://www.w3.org/2000/svg" xmlns:xlink="http://www.w3.org/1999/xlink" x="0px" y="0px"
	 viewBox="0 0 1287.6 665" enable-background="new 0 0 1287.6 665" xml:space="preserve">
<g id="File_Sharing">
	<g>
		<g>
			<path fill="#D2E9F7" d="M150.4,212.7L150.4,212.7c0,19.4,15.8,35.2,35.2,35.2H357c16.1,0,29.1,13,29.1,29.1l0,0
				C386,293,373,306,357,306H59.6c-24.7,0-44.8,20-44.8,44.8v0c0,24.7,20,44.8,44.8,44.8h142.3c19.6,0,35.5,15.9,35.5,35.5v0
				c0,19.6-15.9,35.5-35.5,35.5H192c-33.9,0-61.3,27.4-61.3,61.3l0,0c0,33.9,27.4,61.3,61.3,61.3h749.9c22.3,0,40.4-18.1,40.4-40.4
				l0,0c0-22.3-18.1-40.4-40.4-40.4h-21.6c-17.1,0-31-13.9-31-31l0,0c0-17.1,13.9-31,31-31h168.9c23.7,0,43-19.2,43-43v0
				c0-23.7-19.2-43-43-43H962.7c-21.1,0-38.2-17.1-38.2-38.2v0c0-21.1,17.1-38.2,38.2-38.2h271.7c29.4,0,53.2-23.8,53.2-53.2v0
				c0-29.4-23.8-53.2-53.2-53.2H185.5C166.1,177.5,150.4,193.2,150.4,212.7z"/>
		</g>
		<g id="XMLID_584_">
			<circle fill="#5FB0E5" cx="374.5" cy="34.8" r="3.2"/>
		</g>
		<g id="XMLID_21_">
			<circle fill="#5FB0E5" cx="984.8" cy="480.3" r="3.2"/>
		</g>
		<g id="XMLID_25_">
			<circle fill="#5FB0E5" cx="1216.7" cy="338.6" r="3.2"/>
		</g>
		<g id="XMLID_32_">
			<circle fill="#5FB0E5" cx="252.6" cy="283.8" r="3.2"/>
		</g>
		<g id="XMLID_13_">
			<circle fill="#5FB0E5" cx="1003.9" cy="330.8" r="3.1"/>
		</g>
		<g id="XMLID_16_">
			<circle fill="#5FB0E5" cx="638.3" cy="109.5" r="6.2"/>
		</g>
		<g id="XMLID_22_">
			<circle fill="#5FB0E5" cx="225.8" cy="109.5" r="4.5"/>
		</g>
		<g id="XMLID_276_">
			<circle fill="#5FB0E5" cx="4.5" cy="474.9" r="4.5"/>
		</g>
		<g id="XMLID_24_">
			<circle fill="#5FB0E5" cx="386.2" cy="132" r="5.4"/>
		</g>
		<g id="XMLID_17_">
			<path fill="#5FB0E5" d="M708.4,26.5c-5.6,1.5-6.8,2.7-8.2,8.2c-1.5-5.6-2.7-6.8-8.2-8.2c5.6-1.5,6.8-2.7,8.2-8.2
				C701.6,23.9,702.8,25.1,708.4,26.5z"/>
		</g>
		<g id="XMLID_23_">
			<path fill="#5FB0E5" d="M1187.4,448.5c-5.2,1.4-6.3,2.5-7.7,7.7c-1.4-5.2-2.5-6.3-7.7-7.7c5.2-1.4,6.3-2.5,7.7-7.7
				C1181.1,446,1182.2,447.1,1187.4,448.5z"/>
		</g>
		<g id="XMLID_18_">
			<path fill="#5FB0E5" d="M184.2,441.7c-6.8,1.8-8.3,3.3-10.1,10.1c-1.8-6.8-3.3-8.3-10.1-10.1c6.8-1.8,8.3-3.3,10.1-10.1
				C176,438.4,177.4,439.8,184.2,441.7z"/>
		</g>
		<g id="XMLID_29_">
			<path fill="#5FB0E5" d="M1091.6,316.9c-8.6,2.3-10.4,4.1-12.7,12.7c-2.3-8.6-4.1-10.4-12.7-12.7c8.6-2.3,10.4-4.1,12.7-12.7
				C1081.2,312.8,1083,314.7,1091.6,316.9z"/>
		</g>
		<g id="XMLID_28_">
			<path fill="#5FB0E5" d="M928.2,88.4c-6.8,1.8-8.3,3.3-10.1,10.1c-1.8-6.8-3.3-8.3-10.1-10.1c6.8-1.8,8.3-3.3,10.1-10.1
				C919.9,85.1,921.4,86.6,928.2,88.4z"/>
		</g>
		<g id="XMLID_19_">
			<path fill="#5FB0E5" d="M115.8,240.7c-7.1,1.9-8.6,3.4-10.5,10.5c-1.9-7.1-3.4-8.6-10.5-10.5c7.1-1.9,8.6-3.4,10.5-10.5
				C107.2,237.3,108.7,238.8,115.8,240.7z"/>
		</g>
	</g>
	<circle id="Background_2" fill="#D2E9F7" cx="596.9" cy="332.5" r="332.5"/>
	<path id="Cable" fill="#FFFFFF" d="M430.3,358.1c-3.1,0-5.6-2.5-5.6-5.5c0-3.1,2.5-5.6,5.6-5.6h190.8c3.1,0,5.6,2.5,5.6,5.6v38.7
		h66.6V216.8c0-3.1,2.5-5.6,5.6-5.6c3.1,0,5.5,2.5,5.5,5.6v180.1c0,3.1-2.5,5.5-5.5,5.5h-72.2v100.5h147.6c3.1,0,5.6,2.5,5.6,5.6
		c0,3.1-2.5,5.5-5.6,5.5H621.1c-3.1,0-5.5-2.5-5.5-5.5V396.8v-38.7H430.3z"/>
	<g id="Folders">
		<g>
			<path fill-rule="evenodd" clip-rule="evenodd" fill="#0686D8" d="M316.6,286.7v-12.2h-57.7v12.2h-16.8c-4.9,0-8.9,4-8.9,8.9v90
				c0,4.9,4,9,8.9,9h147.3c4.9,0,8.9-4.1,8.9-9v-90c0-4.9-4-8.9-8.9-8.9H316.6z"/>
			<path fill-rule="evenodd" clip-rule="evenodd" fill="#5FB0E5" d="M278.7,303.2h158.7c3.8,0,6,3.1,4.9,6.8l-24.2,85.4
				c-1,3.8-5,6.8-8.8,6.8H250.8c-3.8,0-6-3.1-4.9-6.8l24.2-85.4C271,306.3,275,303.2,278.7,303.2L278.7,303.2z"/>
			<path fill-rule="evenodd" clip-rule="evenodd" fill="#5FB0E5" d="M235.5,418.6h180.7c4.1,0,7.4,3.3,7.4,7.3l0,0
				c0,4.1-3.3,7.4-7.4,7.4H235.5c-4.1,0-7.4-3.3-7.4-7.4l0,0C228.1,421.8,231.5,418.6,235.5,418.6L235.5,418.6z"/>
			<path fill-rule="evenodd" clip-rule="evenodd" fill="#0686D8" d="M423.6,425.5c0,0.1,0,0.2,0,0.4l0,0c0,4.1-3.3,7.4-7.4,7.4
				H235.5c-4.1,0-7.4-3.3-7.4-7.4l0,0c0-0.1,0-0.2,0-0.4H423.6z"/>
			<rect x="321.3" y="402.4" fill-rule="evenodd" clip-rule="evenodd" fill="#5FB0E5" width="9.2" height="16.2"/>
		</g>
		<g>
			<path fill-rule="evenodd" clip-rule="evenodd" fill="#0686D8" d="M634.5,70V57.8h-57.6V70H560c-4.9,0-9,4.1-9,9v90
				c0,4.9,4.1,8.9,9,8.9h147.2c4.9,0,8.9-4,8.9-8.9V79c0-4.9-4-9-8.9-9H634.5z"/>
			<path fill-rule="evenodd" clip-rule="evenodd" fill="#5FB0E5" d="M596.6,86.7h158.7c3.8,0,6,3.1,4.9,6.8L736.1,179
				c-1,3.8-5,6.8-8.8,6.8H568.7c-3.8,0-6-3.1-4.9-6.8l24.2-85.4C588.9,89.8,592.9,86.7,596.6,86.7L596.6,86.7z"/>
			<path fill-rule="evenodd" clip-rule="evenodd" fill="#5FB0E5" d="M553.4,202h180.7c4.1,0,7.4,3.3,7.4,7.4l0,0
				c0,4.1-3.3,7.4-7.4,7.4H553.4c-4.1,0-7.4-3.3-7.4-7.4l0,0C546,205.3,549.4,202,553.4,202L553.4,202z"/>
			<path fill-rule="evenodd" clip-rule="evenodd" fill="#0686D8" d="M741.5,209c0,0.1,0,0.2,0,0.4l0,0c0,4.1-3.3,7.4-7.4,7.4H553.4
				c-4.1,0-7.4-3.3-7.4-7.4l0,0c0-0.1,0-0.2,0.1-0.4H741.5z"/>
			<rect x="639.2" y="185.8" fill-rule="evenodd" clip-rule="evenodd" fill="#5FB0E5" width="9.1" height="16.1"/>
		</g>
		<g>
			<path fill-rule="evenodd" clip-rule="evenodd" fill="#0686D8" d="M857.8,458.2v-12.2h-57.7v12.2h-16.8c-4.9,0-9,4.1-9,9v89.9
				c0,4.9,4.1,9,9,9h147.2c4.9,0,8.9-4.1,8.9-9v-89.9c0-4.9-4-9-8.9-9H857.8z"/>
			<path fill-rule="evenodd" clip-rule="evenodd" fill="#F9F9F9" d="M823,414.1h83.2l10.2,10.2l11,11v110.2c0,1.7-1.4,3-3.1,3H823
				c-1.7,0-3.1-1.4-3.1-3V417.1C819.9,415.4,821.3,414.1,823,414.1L823,414.1z"/>
			<path fill-rule="evenodd" clip-rule="evenodd" fill="#CCCCCC" d="M927.4,435.3h-18.2c-1.7,0-3-1.4-3-3.1v-18.2l11,11L927.4,435.3
				z"/>
			<path fill-rule="evenodd" clip-rule="evenodd" fill="#5FB0E5" d="M820.9,454.6h154.6c3.7,0,5.9,3,4.8,6.7l-23.5,83.2
				c-1,3.7-4.9,6.7-8.5,6.7H793.6c-3.6,0-5.8-3-4.7-6.7l23.5-83.2C813.4,457.5,817.3,454.6,820.9,454.6L820.9,454.6z"/>
			<path fill-rule="evenodd" clip-rule="evenodd" fill="#5FB0E5" d="M776.7,590.1h180.7c4.1,0,7.4,3.3,7.4,7.4l0,0
				c0,4.1-3.3,7.3-7.4,7.3H776.7c-4.1,0-7.4-3.3-7.4-7.3l0,0C769.3,593.4,772.6,590.1,776.7,590.1L776.7,590.1z"/>
			<path fill-rule="evenodd" clip-rule="evenodd" fill="#0686D8" d="M964.8,597.1c0,0.1,0,0.2,0,0.4l0,0c0,4.1-3.3,7.3-7.4,7.3
				H776.7c-4.1,0-7.4-3.3-7.4-7.3l0,0c0-0.1,0-0.2,0-0.4H964.8z"/>
			<rect x="862.4" y="573.9" fill-rule="evenodd" clip-rule="evenodd" fill="#5FB0E5" width="9.2" height="16.2"/>
		</g>
	</g>
	<path id="Cloud" fill-rule="evenodd" clip-rule="evenodd" fill="#FFFFFF" d="M617,319.1c14.1,0,25.5,11.5,25.5,25.6
		c0,1.8-0.2,3.6-0.6,5.4c16.2,0,29.4,13.1,29.4,29.4c0,13.2-8.7,24.3-20.7,28.1H545.1c-9.2-4.9-15.3-13.3-15.3-22.9
		c0-14.3,13.6-26,31-27.2c0.2-12.1,10-21.9,22.3-21.9c3.3,0,6.5,0.7,9.3,2C595.5,327,605.3,319.1,617,319.1L617,319.1z"/>
	<g id="Wifi">
		<path fill-rule="evenodd" clip-rule="evenodd" fill="#0686D8" d="M418.7,259.9c41.8,0,75.9-34.1,75.9-75.9
			c0-41.8-34.1-75.9-75.9-75.9c-41.9,0-75.9,34.1-75.9,75.9C342.7,225.8,376.8,259.9,418.7,259.9L418.7,259.9z"/>
		<path fill-rule="evenodd" clip-rule="evenodd" fill="#5FB0E5" d="M418.7,108.1c41.9,0,75.9,34,75.9,75.9c0,41.9-34,75.9-75.9,75.9
			V108.1z"/>
		<path fill="#FFFFFF" d="M361.4,172.1c7.4-7.8,16.3-14,26-18.1v-0.1c9.7-4.1,20.3-6.3,31.1-6.3c10.8,0,21.5,2.2,31.3,6.4
			c9.7,4.2,18.7,10.4,26.1,18.3l-5.2,4.9c-6.8-7.2-14.9-12.8-23.8-16.6c-8.9-3.8-18.5-5.9-28.4-5.9c-9.8,0-19.4,2-28.3,5.8l0,0
			c-8.9,3.8-17,9.4-23.7,16.5L361.4,172.1z M409,212c1.2-1.3,2.7-2.3,4.4-3l0,0c1.7-0.7,3.5-1.1,5.2-1.1c1.8,0,3.6,0.4,5.3,1.1
			c1.6,0.7,3.1,1.7,4.4,3.1c-1.7,1.5-7.9,8.4-9.6,8.4C416.9,220.5,410.7,213.6,409,212L409,212z M393,198c3.3-3.5,7.3-6.3,11.7-8.1
			c4.4-1.9,9.1-2.9,13.9-2.9c4.9,0,9.6,1,14,2.9c4.4,1.9,8.4,4.7,11.7,8.2l-5.2,4.9c-2.6-2.8-5.9-5.1-9.4-6.5
			c-3.5-1.5-7.3-2.3-11.2-2.3c-3.9,0-7.7,0.7-11.2,2.3c-3.5,1.5-6.7,3.7-9.4,6.5L393,198z M377.2,184.9c5.4-5.7,11.8-10.1,18.9-13.1
			l0,0c7-3,14.7-4.6,22.5-4.6c7.8,0,15.5,1.6,22.6,4.7c7,3,13.5,7.5,18.9,13.2l-5.2,4.9c-4.7-5-10.4-8.9-16.5-11.5
			c-6.2-2.7-12.9-4.1-19.7-4.1c-6.9,0-13.6,1.4-19.7,4.1l0,0c-6.2,2.7-11.8,6.5-16.5,11.5L377.2,184.9z"/>
	</g>
	<g id="Share">
		<path fill-rule="evenodd" clip-rule="evenodd" fill="#0686D8" d="M818.9,377.4c41.9,0,75.9-34.2,75.9-75.9
			c0-41.8-34.1-75.9-75.9-75.9c-41.8,0-75.9,34.1-75.9,75.9C743,343.2,777.1,377.4,818.9,377.4L818.9,377.4z"/>
		<path fill-rule="evenodd" clip-rule="evenodd" fill="#5FB0E5" d="M818.9,225.6c41.9,0,75.9,34,75.9,75.9c0,41.9-34,75.9-75.9,75.9
			V225.6z"/>
		<path fill-rule="evenodd" clip-rule="evenodd" fill="#FFFFFF" d="M841.5,256.4c6.5,0,11.7,5.2,11.7,11.7c0,6.5-5.2,11.7-11.7,11.7
			c-3,0-5.7-1.1-7.8-3l-39.3,22.4c0.1,0.7,0.2,1.5,0.2,2.2c0,0.8-0.1,1.5-0.2,2.3l39.3,22.4c2.1-1.9,4.8-3,7.8-3
			c6.5,0,11.7,5.2,11.7,11.7c0,6.5-5.2,11.7-11.7,11.7c-6.5,0-11.7-5.2-11.7-11.7c0-0.7,0.1-1.5,0.2-2.2l-39.3-22.4
			c-2.1,1.9-4.8,3-7.8,3c-6.5,0-11.7-5.2-11.7-11.7c0-6.5,5.2-11.7,11.7-11.7c3,0,5.7,1.2,7.8,3l39.3-22.4c-0.1-0.7-0.2-1.4-0.2-2.2
			C829.8,261.6,835,256.4,841.5,256.4L841.5,256.4z"/>
	</g>
	<g id="Download_Upload">
		<path fill-rule="evenodd" clip-rule="evenodd" fill="#0686D8" d="M506.1,622.6c41.9,0,75.9-34.1,75.9-75.9
			c0-41.9-34.1-75.9-75.9-75.9c-41.8,0-75.9,34.1-75.9,75.9C430.3,588.5,464.3,622.6,506.1,622.6L506.1,622.6z"/>
		<path fill-rule="evenodd" clip-rule="evenodd" fill="#5FB0E5" d="M506.1,470.7c42,0,75.9,34,75.9,75.9c0,41.9-34,75.9-75.9,75.9
			V470.7z"/>
		<path fill-rule="evenodd" clip-rule="evenodd" fill="#FFFFFF" d="M482.2,567.8h20.6v-43.9h8.3l-9.3-16l-9.2-16l-9.2,16l-9.2,16
			h8.2V567.8z M512.4,533.4h18.7v39.9h7.5l-8.4,14.6l-8.4,14.6l-8.4-14.6l-8.4-14.6h7.5V533.4z"/>
	</g>
	<circle fill="#FFFFFF" cx="658.6" cy="136.3" r="14.9"/>
	<circle fill="#FFFFFF" cx="344.1" cy="352.8" r="14.9"/>
	<circle fill="#FFFFFF" cx="884.6" cy="506" r="14.9"/>
</g>
<g id="Layer_2">
</g>
</svg>
