<svg fill="none" height="43" viewBox="0 0 173 43" width="173" xmlns="http://www.w3.org/2000/svg"><g fill="#2f80ed"><path d="m63.375 37.6-21.6-36c-.5-1.1-1.6-1.6-2.9-1.6-1.1 0-2.1.5-2.9 1.6l-9.3 16.3-4.5-7.2c-.5-1.1-1.6-1.6-2.9-1.6-1.1 0-2.1.5-2.9 1.6l-16 26.9c-.5 1.1-.5 2.4 0 3.5.8 1.1 1.9 1.6 3.2 1.6h57.1c1.3 0 2.4-.5 2.9-1.6.3-1.1.3-2.5-.2-3.5zm-56.8-.3 12.5-21.1 4.5 7.5c.5 1.1 1.6 1.6 2.9 1.6 1.1 0 2.4-.5 2.9-1.6l9.6-16.3 18 29.9z"/><path d="m79.339 14.558-2.646-4.94899h-.196l.49 4.94899v22.442h-3.822v-34.83899h2.156l16.415 22.88299 2.548 4.704h.245l-.539-4.704v-22.34399h3.822v34.83899h-2.156z"/><path d="m104.371 24.75c0-4.1487.914-7.3173 2.744-9.506 1.862-2.2213 4.524-3.332 7.987-3.332 1.829 0 3.413.3103 4.753.931 1.372.588 2.499 1.4537 3.381 2.597.882 1.1107 1.535 2.4663 1.96 4.067.424 1.568.637 3.3157.637 5.243 0 4.1487-.931 7.3337-2.793 9.555-1.83 2.1887-4.476 3.283-7.938 3.283-1.83 0-3.43-.294-4.802-.882-1.34-.6207-2.45-1.4863-3.332-2.597-.882-1.1433-1.536-2.499-1.96-4.067-.425-1.6007-.637-3.3647-.637-5.292zm4.067 0c0 1.2413.114 2.4337.343 3.577.261 1.1433.653 2.1397 1.176 2.989.522.8493 1.208 1.5353 2.058 2.058.849.5227 1.878.784 3.087.784 4.442.0327 6.664-3.1033 6.664-9.408 0-1.274-.131-2.4827-.392-3.626-.229-1.1433-.605-2.1397-1.127-2.989-.523-.8493-1.209-1.519-2.058-2.009-.85-.5227-1.879-.784-3.087-.784-4.443-.0327-6.664 3.1033-6.664 9.408z"/><path d="m138.495 26.857 1.372 4.655h.049l1.225-4.753 5.488-14.259h4.214l-10.437 25.039h-1.666l-10.633-25.039h4.508z"/><path d="m154.686 14.313c1.241-.7513 2.678-1.3067 4.312-1.666 1.666-.3593 3.397-.539 5.194-.539 1.698 0 3.054.2287 4.067.686 1.045.4573 1.829 1.0617 2.352 1.813.555.7187.914 1.519 1.078 2.401.196.882.294 1.764.294 2.646 0 1.96-.049 3.871-.147 5.733s-.147 3.626-.147 5.292c0 1.2087.049 2.352.147 3.43s.277 2.0743.539 2.989h-2.891l-1.029-3.43h-.245c-.294.4573-.67.9147-1.127 1.372-.425.4247-.948.8167-1.568 1.176-.621.3267-1.34.6043-2.156.833-.817.2287-1.748.343-2.793.343-1.046 0-2.026-.1633-2.94-.49-.882-.3267-1.65-.784-2.303-1.372-.654-.6207-1.176-1.3557-1.568-2.205-.36-.8493-.539-1.813-.539-2.891 0-1.4373.294-2.6297.882-3.577.588-.98 1.404-1.7477 2.45-2.303 1.078-.588 2.352-.9963 3.822-1.225 1.502-.2613 3.152-.392 4.949-.392h1.323c.457 0 .914.0327 1.372.098.098-.98.147-1.862.147-2.646 0-1.7967-.36-3.0543-1.078-3.773-.719-.7187-2.026-1.078-3.92-1.078-.556 0-1.16.049-1.813.147-.621.0653-1.274.1797-1.96.343-.654.1307-1.291.3103-1.911.539-.588.196-1.111.4247-1.568.686zm6.958 19.649c.914 0 1.731-.1143 2.45-.343.718-.2613 1.339-.5717 1.862-.931.522-.392.947-.8167 1.274-1.274.359-.4573.62-.8983.784-1.323v-4.067c-.458-.0327-.931-.049-1.421-.049-.458-.0327-.915-.049-1.372-.049-1.013 0-2.009.0653-2.989.196-.948.098-1.797.3103-2.548.637-.719.294-1.307.7187-1.764 1.274-.425.5227-.637 1.1923-.637 2.009 0 1.1433.408 2.0907 1.225 2.842.816.7187 1.862 1.078 3.136 1.078z"/></g></svg>