<svg fill="none" height="20" viewBox="0 0 67 20" width="67" xmlns="http://www.w3.org/2000/svg"><path d="m0 7.27881h3.69372c7.01238 0 12.69718 5.51499 12.69718 12.31809h-16.3909z" fill="#4a6cf7"/><path d="m16.0342 9.99989c1.5813 0 2.8632-1.24365 2.8632-2.77778 0-1.53412-1.2819-2.77777-2.8632-2.77777s-2.8633 1.24365-2.8633 2.77777c0 1.53413 1.282 2.77778 2.8633 2.77778z" fill="#ccc3fe"/><path d="m0 0v17.3574l15.352-17.3574z" fill="#fdb3ed"/><path d="m29.1002 7.4962h2.363c-.0342-2.01626-1.7423-3.40831-4.3388-3.40831-2.5566 0-4.4299 1.36995-4.4185 3.42486-.0057 1.66828 1.2071 2.62385 3.1772 3.08235l1.2698.3094c1.2697.2983 1.9758.6518 1.9815 1.4141-.0057.8287-.8143 1.3921-2.067 1.3921-1.2811 0-2.2035-.5745-2.2832-1.7069h-2.3858c.0626 2.4471 1.8676 3.7121 4.6975 3.7121 2.847 0 4.521-1.3203 4.5267-3.3918-.0057-1.8836-1.469-2.88346-3.4961-3.3254l-1.0477-.24306c-1.0135-.22644-1.8619-.59105-1.8448-1.40306 0-.72916.6662-1.26499 1.8733-1.26499 1.1787 0 1.9018.51922 1.9929 1.40861zm6.6292 8.2197c1.2925 0 2.1296-.5469 2.5566-1.3368h.0683v1.1766h2.3004v-5.72284c0-2.02177-1.7651-2.8725-3.7125-2.8725-2.0954 0-3.4733.97223-3.8093 2.51895l2.2434.17677c.1652-.56344.6833-.97777 1.5545-.97777.8256 0 1.2983.40327 1.2983 1.09927v.03317c0 .54685-.5979.61865-2.1182.76225-1.731.1548-3.2854.7182-3.2854 2.6129 0 1.6793 1.2356 2.53 2.9039 2.53zm.6947-1.624c-.746 0-1.2812-.337-1.2812-.9833 0-.6629.5637-.9888 1.4178-1.1048.5295-.0718 1.395-.1934 1.6854-.3812v.9004c0 .8894-.7572 1.5689-1.822 1.5689zm8.6064 1.624c1.2925 0 2.1295-.5469 2.5566-1.3368h.0683v1.1766h2.3004v-5.72284c0-2.02177-1.7652-2.8725-3.7125-2.8725-2.0954 0-3.4733.97223-3.8093 2.51895l2.2434.17677c.1652-.56344.6833-.97777 1.5545-.97777.8256 0 1.2982.40327 1.2982 1.09927v.03317c0 .54685-.5979.61865-2.1181.76225-1.731.1548-3.2854.7182-3.2854 2.6129 0 1.6793 1.2355 2.53 2.9039 2.53zm.6947-1.624c-.746 0-1.2812-.337-1.2812-.9833 0-.6629.5637-.9888 1.4178-1.1048.5295-.0718 1.395-.1934 1.6854-.3812v.9004c0 .8894-.7573 1.5689-1.822 1.5689zm12.4841-6.5957h2.3627c-.0338-2.01626-1.742-3.40831-4.3384-3.40831-2.5569 0-4.4302 1.36995-4.4188 3.42486-.0056 1.66828 1.2074 2.62385 3.1773 3.08235l1.2696.3094c1.2701.2983 1.9762.6518 1.9813 1.4141-.0051.8287-.8137 1.3921-2.0666 1.3921-1.2811 0-2.2036-.5745-2.2832-1.7069h-2.3858c.0626 2.4471 1.8676 3.7121 4.6976 3.7121 2.8466 0 4.5211-1.3203 4.5268-3.3918-.0057-1.8836-1.4694-2.88346-3.496-3.3254l-1.048-.24306c-1.0136-.22644-1.8617-.59105-1.8451-1.40306 0-.72916.6666-1.26499 1.8737-1.26499 1.1786 0 1.9018.51922 1.9929 1.40861z" fill="#090e34"/></svg>