<svg fill="none" height="608" viewBox="0 0 736 608" width="736" xmlns="http://www.w3.org/2000/svg"><path d="m77.9908 534.435h87.7512v-284.003h-87.7512z" fill="#fff"/><path d="m77.9908 534.435h87.7512v-284.003h-87.7512z" fill="#5468ff" opacity=".7"/><path d="m3.5038 534.389h74.4873v-283.912h-74.4873z" fill="#5468ff"/><path d="m88.4792 323.11h70.4038v-61.178h-70.4038z" fill="#fff"/><path d="m88.4792 391.227h70.4038v-61.178h-70.4038z" fill="#fff"/><path d="m88.4792 391.227h70.4038v-61.178h-70.4038z" fill="#5468ff" opacity=".6"/><path d="m88.4792 459.344h70.4038v-61.178h-70.4038z" fill="#fff"/><path d="m88.4792 527.461h70.4038v-61.178h-70.4038z" fill="#fff"/><path d="m88.4792 323.11h70.4038v-61.178h-70.4038z" fill="#5468ff" opacity=".6"/><path d="m88.4792 459.344h70.4038v-61.178h-70.4038z" fill="#5468ff" opacity=".6"/><path d="m88.4792 527.461h70.4038v-61.178h-70.4038z" fill="#5468ff" opacity=".6"/><path d="m126.132 275.674c1.351 0 2.446-1.095 2.446-2.446s-1.095-2.446-2.446-2.446c-1.35 0-2.445 1.095-2.445 2.446s1.095 2.446 2.445 2.446z" fill="#fff"/><path d="m126.132 344.576c1.351 0 2.446-1.095 2.446-2.446s-1.095-2.446-2.446-2.446c-1.35 0-2.445 1.095-2.445 2.446s1.095 2.446 2.445 2.446z" fill="#fff"/><path d="m126.132 413.489c1.351 0 2.446-1.095 2.446-2.446 0-1.35-1.095-2.445-2.446-2.445-1.35 0-2.445 1.095-2.445 2.445 0 1.351 1.095 2.446 2.445 2.446z" fill="#fff"/><path d="m126.132 482.391c1.351 0 2.446-1.095 2.446-2.446 0-1.35-1.095-2.445-2.446-2.445-1.35 0-2.445 1.095-2.445 2.445 0 1.351 1.095 2.446 2.445 2.446z" fill="#fff"/><path d="m155.595 591.403h10.147v-56.969h-10.147z" fill="#5468ff"/><path d="m78.3437 591.403h10.147v-56.969h-10.147z" fill="#5468ff"/><path d="m4.58431 591.403h10.14699v-56.969h-10.14699z" fill="#5468ff"/><path d="m589.562 495.041h-80.664l14.527 86.238c.303 1.8 1.11 3.477 2.329 4.836 1.218 1.359 2.797 2.345 4.553 2.842l.284.08c.239.057.467.136.717.182.54.105 1.088.166 1.638.182v.08l.398-.057h35.947c.664 0 1.327-.065 1.979-.194 2.094-.32 4.025-1.318 5.498-2.84 1.473-1.523 2.407-3.486 2.659-5.589l7.007-59.426.318-2.366 2.776-23.536zm-15.22 55.012h-8.282l.831-25.026h9.589zm2.946-25.026h7.963l-2.946 25.026h-7.156zm-23.638 52.771-.501-21.739h11.922l-.728 21.739zm-12.889-21.739h11.58l.501 21.739h-10.386zm.899 21.739h-9.715c-.922-5.87-2.127-13.503-3.413-21.739h11.433zm-1.32-27.745-1.957-25.026h13.287l.58 25.026zm12.718 0-.58-25.026h13.65l-.83 25.026zm-.717-31.033-.625-23.183h15.357l-.774 23.183zm-.796 0h-13.651l-1.808-23.183h14.89zm-14.424 0h-14.47l-1.433-8.952c-1.502-9.374-2.071-12.9-2.378-14.22h16.415zm.466 6.007 1.957 25.026h-11.979l-1.217-7.679c-.933-5.904-1.865-11.819-2.753-17.347zm-10.773 25.026h-7.78l-4.221-25.026h8.043c1.171 7.735 2.537 16.335 3.902 25.026zm.945 6.006c1.137 7.519 2.354 14.948 3.412 21.739h-7.473l-3.663-21.739zm37.425 21.739.728-21.739h7.963l-1.865 21.739zm1.957-58.778.773-23.183h11.103l-1.991 23.183zm-49.063-23.183c.319 1.672 1.797 10.795 3.765 23.183h-8.099l-3.902-23.183zm60.916 81.904h-6.234l1.866-21.739h6.928zm6.928-58.778h-8.122l1.991-23.183h8.861z" fill="#5468ff"/><path d="m735.909 265.982c0-4.198-5.221-7.622-11.66-7.622h-584.591c-6.438 0-11.66 3.413-11.66 7.622v13.89h42.977v315.194h14.333v-315.206h490.288v315.627h14.333v-315.627h45.957z" fill="#fff"/><path d="m735.909 265.982c0-4.198-5.221-7.622-11.66-7.622h-584.591c-6.438 0-11.66 3.413-11.66 7.622v13.89h42.977v315.194h14.333v-315.206h490.288v315.627h14.333v-315.627h45.957z" fill="#5468ff" opacity=".2"/><path d="m400.932 258.61h61.735v-163.3416h-61.735z" fill="#5468ff"/><path d="m400.932 258.61h61.735v-163.3416h-61.735z" fill="#000d44" opacity=".2"/><path d="m548.872 44.0326v157.2564l-59.722-.956-62.566-1.001-19.759-.318-63.283-1.013-38.21-.66v-153.3084c.003-2.6379 1.053-5.1667 2.919-7.0309 1.867-1.8642 4.397-2.9113 7.035-2.9113h223.609c1.308-.003 2.604.2518 3.814.75 1.209.4982 2.309 1.2299 3.235 2.1532.927.9234 1.662 2.0204 2.165 3.2282.502 1.2078.761 2.5027.763 3.8108z" fill="#5468ff"/><path d="m548.872 44.0326v157.2564l-59.722-.956-62.566-1.001-19.759-.318-63.283-1.013-38.21-.66v-153.3084c.003-2.6379 1.053-5.1667 2.919-7.0309 1.867-1.8642 4.397-2.9113 7.035-2.9113h223.609c1.308-.003 2.604.2518 3.814.75 1.209.4982 2.309 1.2299 3.235 2.1532.927.9234 1.662 2.0204 2.165 3.2282.502 1.2078.761 2.5027.763 3.8108z" fill="#000d44" opacity=".2"/><path d="m538.85 47.5708h-223.496c-.509 0-.922.4125-.922.9214v138.7248c0 .509.413.922.922.922h223.496c.508 0 .921-.413.921-.922v-138.7248c0-.5089-.413-.9214-.921-.9214z" fill="#fff"/><path d="m305.412 196.625v11.74c0 4.601 1.827 9.013 5.081 12.266 3.253 3.254 7.665 5.081 12.266 5.081h208.765c4.601 0 9.013-1.827 12.267-5.081 3.253-3.253 5.081-7.665 5.081-12.266v-11.74z" fill="#5468ff"/><path d="m377.282 259.236h101.789c1.508 0 2.955-.599 4.022-1.666 1.067-1.066 1.666-2.513 1.666-4.021 0-1.509-.599-2.956-1.666-4.022-1.067-1.067-2.514-1.666-4.022-1.666h-101.789c-1.508 0-2.955.599-4.022 1.666-1.066 1.066-1.666 2.513-1.666 4.022 0 1.508.6 2.955 1.666 4.021 1.067 1.067 2.514 1.666 4.022 1.666z" fill="#5468ff"/><path d="m360.151 572.36c.893-.097 1.742-.435 2.457-.978 0 .159.091.33.137.489.154.639.17 1.304.047 1.95-.122.646-.381 1.258-.759 1.796s-.866.99-1.431 1.324c-.566.335-1.197.546-1.85.618-9.629 1.069-19.308 1.627-28.997 1.672-14.856 0-27.301-.58-31.135-.785-.333-.015-.646-.161-.872-.406s-.346-.569-.333-.902c0-.899.079-2.275.159-3.902 4.55.216 17.143.762 32.159.762 10.16-.033 20.312-.58 30.418-1.638z" fill="#fff"/><path d="m321.724 555.388s25.982.842 33.194 3.97c4.232 1.832 6.518 7.576 7.701 12.024-.715.543-1.564.881-2.457.979-10.104 1.069-20.257 1.627-30.418 1.672-15.016 0-27.654-.546-32.159-.762.205-4.266.637-10.523 1.513-16.154 7.586.536 15.21-.047 22.626-1.729z" fill="#000d44"/><path d="m425.629 572.201c.176-.026.351-.064.523-.114.08.33.182.672.25.979.116.491.126 1.001.03 1.497-.097.495-.297.964-.589 1.376-.291.412-.667.757-1.102 1.013s-.92.416-1.422.471c-10.551 1.164-21.156 1.772-31.772 1.82-15.664 0-28.757-.592-32.693-.785-.316-.024-.61-.168-.822-.403s-.325-.543-.316-.86c0-.887.08-2.275.16-3.902 5.426.239 18.394.728 33.66.728 14.356 0 27.643-1.149 34.093-1.82z" fill="#fff"/><path d="m383.141 555.388s27.21.842 34.764 3.97c4.687 1.934 7.087 8.225 8.259 12.741-.172.049-.347.087-.524.114-6.45.659-19.736 1.82-34.126 1.82-15.267 0-28.235-.489-33.661-.728.255-5.424.795-10.831 1.615-16.199 7.933.537 15.901-.041 23.673-1.718z" fill="#000d44"/><path d="m241.162 324.919c59.324-1.764 93.28 12.08 96.044 30.486 2.765 18.406-10.59 200.21-10.59 200.21s-10.318 5.688-27.575 2.275c0 0-11.159-60.495-14.686-89.275-3.526-28.78-.295-67.867-.295-67.867s-55.502 19.418-88.98-1.729-2.935-79.891-2.935-79.891z" fill="#1b255e"/><path d="m301.362 324.919c59.324-1.764 93.28 12.08 96.044 30.486s-11.376 200.097-11.376 200.097-8.565 5.335-26.778 2.98c0 0-11.159-61.041-14.686-89.867-3.526-28.826-.295-67.867-.295-67.867s-55.502 19.418-88.98-1.729c-33.479-21.147-2.935-79.891-2.935-79.891z" fill="#1b255e"/><path d="m277.086 26.5488c3.908 9.4051 6.481 19.3106 7.645 29.4287 0 0 5.346 9.4076 5.46 12.8202.114 3.4127-4.994 4.7891-4.994 4.7891s0 18.5991-4.652 24.4803c-4.653 5.8809-21.182 5.9949-21.182 5.9949s-2.036 5.233 2.821 25.686h-46.423s5.483-14.788 6.484-38.1877c1.001-23.3996-9.977-65.0115 54.841-65.0115z" fill="#f5b58f"/><path d="m211.051 20.531c.943-1.0369 2-1.9641 3.151-2.7643 4.565-3.2456 9.769-5.4795 15.266-6.5523 7.19-1.60394 14.607-1.99071 21.853-3.35578 8.418-1.58121 16.528-4.48198 24.628-7.280376.473-.237669.989-.37547 1.518-.404826.528-.029356 1.057.050365 1.553.234195.403.296626.739.672917.99 1.105447.251.43252.409.912.466 1.40856.923 3.8906 1.093 7.92168.501 11.87608l3.083-2.8211c1.035 3.5605.341 7.4055-.888 10.9092-1.228 3.5036-2.969 6.8253-4.118 10.329-2.275 7.1211-2.081 14.7882-1.069 22.2506.426 1.9992.461 4.0621.103 6.0746-.512 1.9793-2.116 3.8335-4.153 3.9132-.103-2.3378-.716-4.6247-1.797-6.7002-1.228-1.9794-3.663-3.4127-5.892-2.7302-2.23.6826-3.413 3.0714-3.743 5.3352-.508 3.233.145 6.5415 1.843 9.3393.807 1.3196 1.877 2.696 1.615 4.209-.209.7841-.599 1.5086-1.137 2.1158l-5.131 6.9164c-2.275 2.9918-4.55 6.0518-7.621 8.1108-3.614 2.1545-7.717 3.3526-11.922 3.4809-4.052.3894-8.141.0425-12.07-1.0238-1.631-.3864-3.143-1.1677-4.402-2.2751-1.02-1.1344-1.826-2.445-2.377-3.8677-2.793-6.0173-5.21-12.2024-7.235-18.5195-3.737-12.0442-5.432-24.6286-5.017-37.2322-.073-3.224.171-6.4475.728-9.6238.227-.9073.663-1.7489 1.274-2.4571z" fill="#000d44"/><path d="m207.479 301.678c-5.085-3.765-10.636-7.963-15.926-12.376-12.012-10.09-22.751-21.045-24.07-29.031-2.935-17.882-.637-71.029.785-96.123 0-1.513.136-2.935.227-4.266 1.422-23.707 16.199-33.581 22.569-37.426 3.254 30.817 8.566 99.753 9.158 103.324.796 4.551 7.257 75.898 7.257 75.898z" fill="#5468ff"/><path d="m207.934 123.4s2.821-11.819 5.961-14.788 22.842-3.128 29.144-2.343 25.106 5.551 27.154 7.087c2.047 1.535 5.096 10.044 5.096 10.044z" fill="#1634e2"/><path d="m173.284 154.239c-2.571-42.089 42.465-38.062 42.465-38.062 57.322-3.572 84.248 12.934 87.365 37.539.227 1.741.364 3.618.5 5.597 1.468 25.402-6.279 66.399-9.954 97.034-.068.568-.113 1.137-.17 1.717-1.138 17.064 7.872 66.832 7.872 66.832s-23.332 4.709-60.063 4.709c-36.732 0-51.793-3.412-51.793-3.412s6.245-46.822 0-79.629c-5.722-28.849-14.754-67.924-16.222-92.325z" fill="#5468ff"/><path d="m271.717 179.391-6.564-57.572s26.278-2.093 37.836 7.61c4.334 3.64 14.037 27.222 19.406 51.19-5.198 3.982-19.736 10.762-38.973 15.164-4.937-9.646-9.396-16.733-11.705-16.392z" fill="#5468ff"/><path d="m424.309 258.895c-1.006-3.455-2.599-6.71-4.709-9.624-3.413-4.71-13.969-5.335-30.43-3.413-1.137-.421-42.294-15.789-60.472-17.678-1.866-9.885-5.552-28.882-9.761-47.64-5.198 3.981-14.64 3.663-33.876 8.065 9.328 22.25 20.385 56.673 20.385 56.673 12.752 18.542 60.074 15.346 77.274 13.514z" fill="#f5b58f"/><path d="m129.238 596.829c.583.151 1.191.182 1.787.09.595-.091 1.166-.303 1.677-.622.511-.32.951-.74 1.294-1.235.344-.495.583-1.055.702-1.645l54.262-193.59-15.994-4.812-46.902 195.808c-.312 1.217-.16 2.506.427 3.616.586 1.111 1.566 1.963 2.747 2.39z" fill="#fff"/><path d="m129.238 596.829c.583.151 1.191.182 1.787.09.595-.091 1.166-.303 1.677-.622.511-.32.951-.74 1.294-1.235.344-.495.583-1.055.702-1.645l54.262-193.59-15.994-4.812-46.902 195.808c-.312 1.217-.16 2.506.427 3.616.586 1.111 1.566 1.963 2.747 2.39z" fill="#5468ff" opacity=".6"/><path d="m356.875 596.829c-.584.151-1.192.182-1.787.09-.596-.091-1.166-.303-1.677-.622-.511-.32-.951-.74-1.295-1.235-.343-.495-.582-1.055-.702-1.645l-54.273-193.59 15.995-4.812 46.901 195.774c.323 1.22.177 2.516-.408 3.634s-1.568 1.976-2.754 2.406z" fill="#fff"/><path d="m356.875 596.829c-.584.151-1.192.182-1.787.09-.596-.091-1.166-.303-1.677-.622-.511-.32-.951-.74-1.295-1.235-.343-.495-.582-1.055-.702-1.645l-54.273-193.59 15.995-4.812 46.901 195.774c.323 1.22.177 2.516-.408 3.634s-1.568 1.976-2.754 2.406z" fill="#5468ff" opacity=".6"/><path d="m290.43 596.943c-.603.073-1.215.024-1.799-.144s-1.129-.451-1.602-.833-.864-.854-1.152-1.39c-.287-.535-.464-1.123-.52-1.728l-32.125-199.198 16.369-2.696 24.606 200.438c.192 1.232-.092 2.49-.793 3.521s-1.768 1.756-2.984 2.03z" fill="#fff"/><path d="m290.43 596.943c-.603.073-1.215.024-1.799-.144s-1.129-.451-1.602-.833-.864-.854-1.152-1.39c-.287-.535-.464-1.123-.52-1.728l-32.125-199.198 16.369-2.696 24.606 200.438c.192 1.232-.092 2.49-.793 3.521s-1.768 1.756-2.984 2.03z" fill="#5468ff" opacity=".6"/><path d="m192.782 596.943c.603.072 1.215.023 1.799-.145.584-.167 1.129-.451 1.602-.832.473-.382.864-.855 1.152-1.39.287-.536.464-1.123.521-1.728l32.124-199.21-16.392-2.696-24.583 200.449c-.192 1.232.092 2.491.793 3.522.701 1.03 1.768 1.756 2.984 2.03z" fill="#fff"/><path d="m192.782 596.943c.603.072 1.215.023 1.799-.145.584-.167 1.129-.451 1.602-.832.473-.382.864-.855 1.152-1.39.287-.536.464-1.123.521-1.728l32.124-199.21-16.392-2.696-24.583 200.449c-.192 1.232.092 2.491.793 3.522.701 1.03 1.768 1.756 2.984 2.03z" fill="#5468ff" opacity=".6"/><path d="m113.358 199.617v.25c.125.819.284 1.752.512 2.798.352 1.468.785 2.992 1.296 4.63 2.742 9.044 7.292 21.512 8.293 45.23.819 19.759-2.537 46.639-1.046 71.006 1.49 24.366 5.687 58.561 31.271 76.853 4.946 3.605 10.407 6.442 16.199 8.418 5.102 1.793 10.335 3.188 15.653 4.175 8.316 1.544 16.726 2.532 25.174 2.958 5.301.296 10.613.432 15.846.489 10.67.091 20.988-.228 30.066-.489l6.677-.171c2.73-.068 5.79-.227 9.101-.489 8.065-.614 17.723-1.752 27.893-3.276 5.244-.785 10.636-1.684 16.016-2.639 29.907-5.392 59.472-13.298 63.226-20.237 1.25-2.013 1.757-4.399 1.433-6.746-.043-.355-.119-.706-.227-1.047-.238-.718-.575-1.4-1.001-2.025-.325-.525-.707-1.013-1.138-1.456-1.517-1.44-3.38-2.463-5.41-2.969-2.029-.507-4.155-.479-6.17.08-12.752 3.253-50.781 10.5-67.844-11.171-20.692-26.255-11.683-24.036-20.59-87.979-8.372-60.484-25.311-72.69-56.525-84.782-26.801-10.306-66.536-8.816-88.172-5.688-4.151.516-8.26 1.322-12.297 2.412-2.099.617-3.979 1.817-5.423 3.46s-2.392 3.662-2.734 5.823c-.138.853-.165 1.721-.079 2.582z" fill="#fff"/><g fill="#5468ff"><path d="m113.358 199.617v.25c.125.819.284 1.752.512 2.798.352 1.468.785 2.992 1.296 4.63 2.742 9.044 7.292 21.512 8.293 45.23.819 19.759-2.537 46.639-1.046 71.006 1.49 24.366 5.687 58.561 31.271 76.853 4.946 3.605 10.407 6.442 16.199 8.418 5.102 1.793 10.335 3.188 15.653 4.175 8.316 1.544 16.726 2.532 25.174 2.958 5.301.296 10.613.432 15.846.489 10.67.091 20.988-.228 30.066-.489l6.677-.171c2.73-.068 5.79-.227 9.101-.489 8.065-.614 17.723-1.752 27.893-3.276 5.244-.785 10.636-1.684 16.016-2.639 29.907-5.392 59.472-13.298 63.226-20.237 1.25-2.013 1.757-4.399 1.433-6.746-.043-.355-.119-.706-.227-1.047-.238-.718-.575-1.4-1.001-2.025-.325-.525-.707-1.013-1.138-1.456-1.517-1.44-3.38-2.463-5.41-2.969-2.029-.507-4.155-.479-6.17.08-12.752 3.253-50.781 10.5-67.844-11.171-20.692-26.255-11.683-24.036-20.59-87.979-8.372-60.484-25.311-72.69-56.525-84.782-26.801-10.306-66.536-8.816-88.172-5.688-4.151.516-8.26 1.322-12.297 2.412-2.099.617-3.979 1.817-5.423 3.46s-2.392 3.662-2.734 5.823c-.138.853-.165 1.721-.079 2.582z" opacity=".5"/><path d="m113.358 199.617v.25c.125.819.284 1.752.512 2.798.352 1.468.784 2.992 1.296 4.63 2.742 9.044 7.292 21.511 8.293 45.23.819 19.759-2.537 46.639-1.046 71.006 1.49 24.366 5.687 58.561 31.271 76.853 4.946 3.604 10.407 6.442 16.199 8.418 5.102 1.793 10.335 3.188 15.653 4.175 8.316 1.544 16.726 2.532 25.174 2.958 5.301.295 10.613.432 15.846.489 10.67.091 20.988-.228 30.066-.489l6.677-.171c2.73-.068 5.79-.227 9.101-.489 8.065-.614 17.723-1.752 27.893-3.276 5.244-.785 10.636-1.684 16.016-2.639 29.907-5.392 59.472-13.298 63.226-20.238 1.25-2.012 1.757-4.398 1.433-6.745-.043-.355-.119-.706-.227-1.047-.238-.718-.575-1.4-1.001-2.025-.626-.921-14.732 5.04-16.097 5.563-34.229 13.105-81.278 4.072-87.034-37.972-4.881-35.821-3.413-70.369-16.359-104.939-25.549-68.095-126.667-49.45-146.881-44.957-.119.868-.123 1.748-.011 2.617z"/><path d="m326.274 174.17c-.329 0 1.991-25.106 5.188-56.002 3.196-30.8965 6.04-55.9228 6.359-55.8887.318.0342-1.991 25.1059-5.188 56.0017-3.196 30.896-6.04 55.923-6.359 55.889z"/><path d="m357.125 68.4448c6.49 0 11.751-.2649 11.751-.5916 0-.3266-5.261-.5915-11.751-.5915s-11.751.2649-11.751.5915c0 .3267 5.261.5916 11.751.5916z"/><path d="m468.81 67.8532c0 .3299-20.942.5916-46.787.5916-25.846 0-46.788-.2617-46.788-.5916 0-.3298 20.942-.5915 46.788-.5915 25.845 0 46.787.2617 46.787.5915z"/><path d="m354.361 127.678c6.489 0 11.751-.265 11.751-.592s-5.262-.591-11.751-.591c-6.49 0-11.751.264-11.751.591s5.261.592 11.751.592z"/><path d="m419.258 127.678c25.84 0 46.788-.265 46.788-.592s-20.948-.591-46.788-.591-46.788.264-46.788.591 20.948.592 46.788.592z"/><path d="m434.172 154.387c0 .33-20.943.592-46.788.592s-46.788-.262-46.788-.592c0-.329 20.943-.591 46.788-.591s46.788.318 46.788.591z"/><path d="m362.699 85.1669c9.129 0 16.529-.2648 16.529-.5915s-7.4-.5915-16.529-.5915-16.529.2648-16.529.5915 7.4.5915 16.529.5915z"/><path d="m361.869 109.681c9.128 0 16.528-.265 16.528-.591 0-.327-7.4-.592-16.528-.592-9.129 0-16.529.265-16.529.592 0 .326 7.4.591 16.529.591z"/><path d="m389.807 144.729c9.129 0 16.529-.264 16.529-.591s-7.4-.592-16.529-.592c-9.128 0-16.528.265-16.528.592s7.4.591 16.528.591z"/><path d="m457.242 85.1669c23.314 0 42.214-.2648 42.214-.5915s-18.9-.5915-42.214-.5915c-23.315 0-42.215.2648-42.215.5915s18.9.5915 42.215.5915z"/><path d="m431.18 111.103c23.314 0 42.215-.264 42.215-.591s-18.901-.592-42.215-.592c-23.315 0-42.215.265-42.215.592s18.9.591 42.215.591z"/><path d="m460.233 144.729c23.315 0 42.215-.264 42.215-.591s-18.9-.592-42.215-.592-42.215.265-42.215.592 18.9.591 42.215.591z"/><path d="m383.152 169.073c23.315 0 42.215-.265 42.215-.591 0-.327-18.9-.592-42.215-.592-23.314 0-42.214.265-42.214.592 0 .326 18.9.591 42.214.591z"/><path d="m476.512 169.073c23.314 0 42.214-.265 42.214-.591 0-.327-18.9-.592-42.214-.592-23.315 0-42.215.265-42.215.592 0 .326 18.9.591 42.215.591z"/><path d="m383.141 178.845c23.314 0 42.215-.265 42.215-.592s-18.901-.591-42.215-.591c-23.315 0-42.215.264-42.215.591s18.9.592 42.215.592z"/><path d="m387.248 92.2085c23.314 0 42.214-.2649 42.214-.5916s-18.9-.5915-42.214-.5915c-23.315 0-42.215.2648-42.215.5915s18.9.5916 42.215.5916z"/><path d="m396.075 85.2578c6.006 0 10.875-.2649 10.875-.5916s-4.869-.5915-10.875-.5915-10.875.2648-10.875.5915 4.869.5916 10.875.5916z"/><path d="m352.472 135.731c6.007 0 10.876-.264 10.876-.591s-4.869-.592-10.876-.592c-6.006 0-10.875.265-10.875.592s4.869.591 10.875.591z"/><path d="m351.961 144.729c6.006 0 10.875-.264 10.875-.591s-4.869-.592-10.875-.592c-6.007 0-10.875.265-10.875.592s4.868.591 10.875.591z"/><path d="m528.487 56.5002c0 .3299-29.873.5916-94.77.5916-64.898 0-106.1-.2617-106.1-.5916s41.236-.5915 106.157-.5915c64.92 0 94.713.2616 94.713.5915z"/><path d="m704.752 258.246 13.434-98.967c.183-.685.207-1.403.068-2.099-.139-.695-.436-1.349-.868-1.911-.433-.562-.989-1.017-1.625-1.33-.637-.313-1.336-.475-2.046-.473h-112.618c-1.026-.002-2.024.338-2.836.966-.811.629-1.39 1.509-1.646 2.503l-12.934 101.243z"/><path d="m596.535 156.924-12.513 93.61h-62.588v7.724h184.99l11.876-98.968c.173-.682.188-1.395.044-2.084s-.444-1.335-.877-1.891c-.432-.555-.986-1.004-1.618-1.313-.633-.309-1.328-.469-2.031-.468h-112.823c-1.012-.001-1.997.33-2.803.942-.805.612-1.387 1.473-1.657 2.448z"/></g><path d="m596.535 156.924-12.513 93.61h-62.588v7.724h184.99l11.876-98.968c.173-.682.188-1.395.044-2.084s-.444-1.335-.877-1.891c-.432-.555-.986-1.004-1.618-1.313-.633-.309-1.328-.469-2.031-.468h-112.823c-1.012-.001-1.997.33-2.803.942-.805.612-1.387 1.473-1.657 2.448z" fill="#000d44" opacity=".2"/><path d="m702.544 250.807h-112.754l10.92-93.12h113.335z" fill="#fff"/><path d="m702.544 250.807h-112.754l10.92-93.12h113.335z" fill="#5468ff" opacity=".1"/><path d="m603.831 195.402c1.634-15.842 2.832-28.698 2.676-28.714s-1.608 12.814-3.242 28.656-2.833 28.698-2.676 28.714c.156.016 1.607-12.814 3.242-28.656z" fill="#5468ff"/><path d="m616.443 169.847c3.323 0 6.017-.127 6.017-.284s-2.694-.285-6.017-.285c-3.324 0-6.018.128-6.018.285s2.694.284 6.018.284z" fill="#5468ff"/><path d="m649.716 169.847c13.25 0 23.991-.127 23.991-.284s-10.741-.285-23.991-.285-23.991.128-23.991.285 10.741.284 23.991.284z" fill="#5468ff"/><path d="m615.021 200.22c3.323 0 6.017-.128 6.017-.285s-2.694-.284-6.017-.284c-3.324 0-6.018.127-6.018.284s2.694.285 6.018.285z" fill="#5468ff"/><path d="m648.294 200.22c13.25 0 23.991-.128 23.991-.285s-10.741-.284-23.991-.284-23.991.127-23.991.284 10.741.285 23.991.285z" fill="#5468ff"/><path d="m631.947 214.212c13.25 0 23.991-.127 23.991-.285 0-.157-10.741-.284-23.991-.284-13.249 0-23.991.127-23.991.284 0 .158 10.742.285 23.991.285z" fill="#5468ff"/><path d="m619.298 178.424c4.68 0 8.475-.127 8.475-.284s-3.795-.285-8.475-.285c-4.681 0-8.475.128-8.475.285s3.794.284 8.475.284z" fill="#5468ff"/><path d="m618.866 190.994c4.68 0 8.475-.127 8.475-.284s-3.795-.285-8.475-.285c-4.681 0-8.475.128-8.475.285s3.794.284 8.475.284z" fill="#5468ff"/><path d="m633.187 208.956c4.681 0 8.475-.127 8.475-.284s-3.794-.285-8.475-.285c-4.68 0-8.475.128-8.475.285s3.795.284 8.475.284z" fill="#5468ff"/><path d="m667.769 178.424c11.956 0 21.648-.127 21.648-.284s-9.692-.285-21.648-.285-21.648.128-21.648.285 9.692.284 21.648.284z" fill="#5468ff"/><path d="m654.403 191.722c11.956 0 21.648-.127 21.648-.284s-9.692-.285-21.648-.285-21.648.128-21.648.285 9.692.284 21.648.284z" fill="#5468ff"/><path d="m669.305 208.956c11.956 0 21.648-.127 21.648-.284s-9.692-.285-21.648-.285-21.648.128-21.648.285 9.692.284 21.648.284z" fill="#5468ff"/><path d="m629.775 224.347c11.956 0 21.648-.127 21.648-.284s-9.692-.285-21.648-.285-21.648.128-21.648.285 9.692.284 21.648.284z" fill="#5468ff"/><path d="m677.643 224.347c11.956 0 21.648-.127 21.648-.284s-9.692-.285-21.648-.285c-11.955 0-21.647.128-21.647.285s9.692.284 21.647.284z" fill="#5468ff"/><path d="m677.643 234.585c11.956 0 21.648-.127 21.648-.284s-9.692-.284-21.648-.284c-11.955 0-21.647.127-21.647.284s9.692.284 21.647.284z" fill="#5468ff"/><path d="m632.141 237.998c11.956 0 21.648-.127 21.648-.284s-9.692-.285-21.648-.285-21.648.128-21.648.285 9.692.284 21.648.284z" fill="#5468ff"/><path d="m677.643 241.411c11.956 0 21.648-.128 21.648-.285s-9.692-.284-21.648-.284c-11.955 0-21.647.127-21.647.284s9.692.285 21.647.285z" fill="#5468ff"/><path d="m629.775 229.364c11.956 0 21.648-.128 21.648-.285s-9.692-.284-21.648-.284-21.648.127-21.648.284 9.692.285 21.648.285z" fill="#5468ff"/><path d="m631.879 182.03c11.956 0 21.648-.127 21.648-.284s-9.692-.285-21.648-.285-21.648.128-21.648.285 9.692.284 21.648.284z" fill="#5468ff"/><path d="m636.407 178.47c3.078 0 5.574-.128 5.574-.285s-2.496-.284-5.574-.284c-3.079 0-5.574.127-5.574.284s2.495.285 5.574.285z" fill="#5468ff"/><path d="m614.043 204.337c3.078 0 5.574-.127 5.574-.284s-2.496-.284-5.574-.284c-3.079 0-5.574.127-5.574.284s2.495.284 5.574.284z" fill="#5468ff"/><path d="m613.781 208.956c3.078 0 5.574-.127 5.574-.284s-2.496-.285-5.574-.285c-3.079 0-5.574.128-5.574.285s2.495.284 5.574.284z" fill="#5468ff"/><path d="m709.836 162.077c0 .16-9.476.205-42.749.205-33.274 0-60.291-.125-60.291-.284s26.972-.285 60.291-.285 42.749.205 42.749.364z" fill="#5468ff"/><path d="m736 595.487h-736v12.513h736z" fill="#fff"/><path d="m736 595.487h-736v12.513h736z" fill="#5468ff" opacity=".2"/></svg>