<svg fill="none" height="98" viewBox="0 0 1495 98" width="1495" xmlns="http://www.w3.org/2000/svg" xmlns:xlink="http://www.w3.org/1999/xlink"><linearGradient id="a" gradientUnits="userSpaceOnUse" x1="471.212" x2="425.871" y1="72.7488" y2="-4.60297"><stop offset="0" stop-color="#c5259a"/><stop offset=".169697" stop-color="#55369b"/><stop offset=".575758" stop-color="#4779c6"/><stop offset="1" stop-color="#70d0e4"/></linearGradient><linearGradient id="b" gradientUnits="userSpaceOnUse" x1="503.813" x2="503.813" y1="2.94141" y2="79.4543"><stop offset="0" stop-color="#7a2393"/><stop offset=".472727" stop-color="#951e93"/><stop offset="1" stop-color="#ee197f"/></linearGradient><linearGradient id="c" gradientUnits="userSpaceOnUse" x1="459" x2="459" y1="2.94141" y2="80.2184"><stop offset="0" stop-color="#7a2393"/><stop offset=".472727" stop-color="#951e93"/><stop offset=".890909" stop-color="#ee197f"/><stop offset="1" stop-color="#ee1a98"/></linearGradient><linearGradient id="d" gradientUnits="userSpaceOnUse" x1="419.429" x2="430.139" y1="16.0342" y2="2.6294"><stop offset="0" stop-color="#423a9c"/><stop offset=".327273" stop-color="#4779c6"/><stop offset="1" stop-color="#70d0e4"/></linearGradient><linearGradient id="e" gradientUnits="userSpaceOnUse" x1="504.349" x2="493.995" y1="67.333" y2="79.6408"><stop offset="0" stop-color="#3f2d92"/><stop offset=".193939" stop-color="#951e93"/><stop offset="1" stop-color="#ee197f"/></linearGradient><linearGradient id="f"><stop offset="0" stop-color="#2bdbdc"/><stop offset="1" stop-color="#0067f4"/></linearGradient><linearGradient id="g" gradientUnits="userSpaceOnUse" x1="1289.01" x2="1289.01" xlink:href="#f" y1="0" y2="49.9893"/><linearGradient id="h" gradientUnits="userSpaceOnUse" x1="1264" x2="1264" xlink:href="#f" y1="24.9893" y2="74.9893"/><linearGradient id="i" gradientUnits="userSpaceOnUse" x1="1276.5" x2="1276.5" xlink:href="#f" y1="49.9893" y2="74.9893"/><linearGradient id="j" gradientUnits="userSpaceOnUse" x1="1251.5" x2="1251.5" xlink:href="#f" y1="24.9893" y2="49.9893"/><g fill="#070707"><path d="m96.3572 46.1043v11.4222c-.6595.664-1.4083 1.233-2.2247 1.6906-.7961.445-1.6392.8002-2.5138 1.0589-.8917.2616-1.8059.4393-2.7307.5311-.9511.0971-1.9065.1453-2.8626.1445-1.8607.0147-3.7047-.3532-5.4173-1.0809-1.6521-.7043-3.1571-1.7126-4.4369-2.9726-1.2722-1.2659-2.2889-2.7648-2.9946-4.4149-.7347-1.7131-1.107-3.5597-1.0935-5.4236-.0141-2.4669.6372-4.892 1.8854-7.0199.6113-1.0314 1.3503-1.9816 2.1996-2.828 1.7095-1.7021 3.8317-2.931 6.1589-3.5665 1.2056-.3322 2.451-.4982 3.7016-.4934 1.0049-.0015 2.0067.1134 2.9851.3425.9757.2269 1.9239.5587 2.8281.9899.9095.4411 1.7754.9672 2.5861 1.5711.8287.6135 1.5996 1.3014 2.3033 2.0551l-1.1438 1.1595c-.3239.3549-.7208.6356-1.1634.8227-.4426.1872-.9204.2763-1.4007.2613-.6948.0058-1.3739-.2063-1.9419-.6064-.7241-.4977-1.5156-.8892-2.3505-1.1627-.8686-.2815-1.7766-.4226-2.6898-.4179-1.1882-.0044-2.3646.2352-3.4565.7039-2.1493.8978-3.87 2.5893-4.8045 4.7228-.4765 1.0898-.7195 2.2672-.7133 3.4565-.0094 1.2099.2436 2.4073.7416 3.51.7337 1.6146 1.9169 2.9837 3.408 3.9438 1.4912.9601 3.2272 1.4705 5.0007 1.4703.6049-.0143 1.2083-.0658 1.8068-.1539.5651-.0849 1.1245-.2046 1.6748-.3583.5753-.1588 1.1262-.3956 1.6372-.7038v-3.8305l-1.5712-.0283c-.4716.002-.9381-.0988-1.3669-.2953-.4186-.2046-.7569-.543-.9615-.9616-.2779-.6301-.4018-1.3173-.3614-2.0047v-1.5241z"/><path d="m109.539 60.6971h-4.984v-27.2593h10.235c1.236-.0187 2.461.2345 3.588.7416 1.037.4695 1.97 1.139 2.747 1.9702.758.8096 1.358 1.7538 1.769 2.784.719 1.7655.83 3.7203.314 5.5556-.211.7574-.528 1.481-.943 2.1493-.883 1.4127-2.142 2.5518-3.635 3.29 1.332 1.8162 2.657 3.6147 3.975 5.3953 1.317 1.7806 2.65 3.5717 3.997 5.3733h-3.916c-.321-.0076-.639-.0659-.942-.1728-.394-.1295-.768-.3113-1.113-.5405-.428-.2767-.83-.5922-1.2-.9427-.45-.4408-.854-.9262-1.207-1.4486l-4.964-6.6962h-3.721zm5.405-14.819c.476-.0028.946-.1101 1.376-.3142.432-.1955.82-.4742 1.144-.8202.327-.3458.588-.7483.77-1.1878.188-.441.285-.9156.286-1.3951 0-.4878-.097-.9708-.286-1.4203-.184-.4387-.445-.841-.77-1.1878-.325-.3441-.713-.6216-1.144-.817-.43-.2057-.9-.313-1.376-.3142h-5.405v7.4377z"/><path d="m139.749 33.4377h4.509l11.909 27.2593h-3.101c-.686.006-1.358-.1848-1.939-.5499-.581-.3644-1.039-.8955-1.313-1.524l-1.619-3.689h-12.383l-1.597 3.689c-.13.3071-.311.5906-.534.839-.228.2528-.49.4727-.779.6536-.292.1865-.61.3304-.943.4274-.329.1022-.673.1541-1.018.1539h-3.101zm-1.731 16.4907h7.972l-3.557-8.2547c-.152-.3346-.264-.6858-.334-1.0464-.056-.3142-.094-.5593-.106-.7227-.024.246-.061.4905-.114.7321-.07.3551-.175.7024-.314 1.037z"/><path d="m170.477 60.697h-5.008v-11.5479c.006-.378-.085-.7514-.264-1.084-.215-.374-.45-.7359-.704-1.0841l-10.008-13.5433h3.824c.767-.0164 1.527.1529 2.215.4934.644.3313 1.191.8226 1.59 1.4266l5.383 7.2869c.158.2112.275.4499.345.7039.063.2388.098.3928.11.4556.024-.1513.06-.3005.107-.4462.076-.2597.202-.502.371-.7133l5.364-7.2681c.39-.6185.939-1.121 1.59-1.4548.69-.3344 1.449-.5003 2.215-.484h3.868l-10.033 13.5621c-.151.2043-.286.3897-.396.5625-.113.1619-.218.3297-.314.5028-.087.1629-.154.336-.198.5153-.047.1859-.069.3771-.066.5687z"/><path d="m208.898 47.6095v10.4983c-.612.5692-1.303 1.0475-2.052 1.4204-.766.3804-1.569.6805-2.397.8955-.869.2228-1.753.3752-2.646.4556-.911.0817-1.838.1226-2.775.1226-1.864.0133-3.711-.3601-5.423-1.0967-1.654-.7045-3.157-1.7176-4.431-2.9851-1.27-1.2684-2.283-2.7695-2.985-4.4212-.722-1.7199-1.094-3.5663-1.094-5.4315 0-1.8651.372-3.7115 1.094-5.4314.704-1.6571 1.722-3.1625 2.998-4.4338 1.274-1.2666 2.778-2.2796 4.43-2.9851 3.432-1.4382 7.294-1.4586 10.741-.0566 1.622.6782 3.103 1.6557 4.364 2.8815l-.188.1728c-.222.2254-.483.4085-.77.5405-.292.1232-.607.1842-.924.1791-.436.003-.862-.1299-1.219-.3802-.943-.6474-1.974-1.1563-3.061-1.5115-1.137-.3659-2.325-.5484-3.519-.5404-1.038-.0042-2.072.1333-3.073.4085-.968.2634-1.895.6567-2.756 1.1689-.853.5036-1.64 1.1105-2.344 1.8068-.702.6979-1.31 1.485-1.807 2.341-.505.8699-.898 1.8-1.169 2.7684-.281.9989-.422 2.0322-.418 3.07-.004 1.0394.14 2.0742.427 3.0731.562 1.9388 1.618 3.6984 3.064 5.1062.717.6997 1.518 1.3076 2.385 1.81.882.5102 1.826.9031 2.809 1.1689 1.007.2746 2.046.412 3.089.4085 1.293.0043 2.58-.1713 3.824-.5216 1.236-.3531 2.415-.8823 3.501-1.5712v-6.5548h-2.417c-.31.0055-.618-.0534-.905-.1729s-.545-.2971-.76-.5215c-.197-.2129-.352-.4613-.456-.7321-.107-.2799-.161-.5771-.16-.8767v-.0755z"/><path d="m219.478 60.697h-2.379v-27.2593h9.55c1.026-.0082 2.044.195 2.988.5971.904.3868 1.727.9424 2.423 1.6371.697.6957 1.253 1.5194 1.637 2.4258.402.9369.606 1.9468.6 2.9664.001.928-.16 1.8491-.477 2.7212-.305.8531-.748 1.6503-1.311 2.3598-.558.6957-1.242 1.2799-2.017 1.722-.789.4507-1.664.7322-2.567.8264l9.015 12.0035h-1.122c-1.304 0-2.272-.4839-2.891-1.4423l-7.934-10.5612h-5.515zm0-24.8837v10.5015h7.171c.702.0045 1.399-.1345 2.045-.4085.626-.264 1.194-.6459 1.675-1.1249.479-.4809.863-1.0481 1.132-1.6717.28-.6453.422-1.3421.417-2.0456.006-.6996-.137-1.3923-.417-2.0331-.544-1.2575-1.548-2.2593-2.807-2.7998-.645-.28-1.342-.4223-2.045-.4179z"/><path d="m245.653 60.697h-2.378v-27.2593h2.378z"/><path d="m254.841 60.6971v-27.2593h10.027c2.417-.0096 4.792.6342 6.873 1.8634 2.021 1.1929 3.707 2.8782 4.902 4.8988 1.226 2.0843 1.872 4.4586 1.872 6.8769 0 2.4182-.646 4.7925-1.872 6.8768-.596 1.0054-1.315 1.9323-2.14 2.759-1.667 1.6675-3.738 2.8728-6.012 3.4973-1.179.3284-2.398.4923-3.623.4871zm10.027-2.3787c1.512.0122 3.01-.2885 4.4-.883 1.333-.5699 2.546-1.3865 3.576-2.407 1.029-1.0245 1.849-2.2389 2.416-3.5759.583-1.3852.883-2.8729.883-4.3756 0-1.5028-.3-2.9905-.883-4.3757-.568-1.339-1.389-2.5562-2.416-3.5853-1.029-1.0244-2.242-1.8444-3.576-2.4164-1.39-.5956-2.888-.8973-4.4-.8861h-7.648v22.505z"/><path d="m295.801 37.0106c-.292-.2011-.55-.3928-.77-.5688-.459-.3692-.996-.6292-1.571-.7604-.413-.0845-.835-.1224-1.257-.1131-.714-.0041-1.423.1216-2.093.3707-.632.233-1.22.5708-1.74.9993-.49.4044-.893.9022-1.188 1.4643-.289.5448-.439 1.1525-.437 1.7691-.019.5957.075 1.1896.277 1.7502.202.4783.527.8945.942 1.2067.529.4026 1.112.7294 1.732.971.716.2974 1.601.6305 2.655.9992.559.2095 1.083.4001 1.571.5719.481.176.943.3582 1.37.5405.412.1744.815.3705 1.207.5876.374.2117.734.45 1.074.7133.857.6391 1.512 1.512 1.886 2.5138.37 1.0449.553 2.1469.54 3.2554.018 1.1116-.223 2.212-.704 3.2146-.455.9339-1.103 1.7608-1.901 2.4258-.83.6833-1.782 1.2026-2.806 1.5303-1.113.3626-2.277.5419-3.447.531-2.371 0-4.369-.7038-5.992-2.1116-.409-.3715-.787-.775-1.132-1.2066-.275-.348-.525-.7145-.751-1.0967l.283-.1697c.362-.2231.776-.3477 1.201-.3613.295-.0014.589.0399.873.1225.282.0846.539.2392.745.4494.436.4152.91.7876 1.417 1.1123.376.2355.778.4273 1.197.5719.352.115.716.1878 1.084.2169.348.0251.706.0439 1.075.0565.772.0245 1.544-.0622 2.291-.2576.744-.182 1.447-.5018 2.074-.9427.618-.4377 1.132-1.0063 1.505-1.6654.404-.7387.605-1.5716.581-2.4133.036-.8614-.119-1.72-.455-2.5138-.288-.6055-.719-1.131-1.257-1.5303-.587-.4183-1.232-.7485-1.914-.9804-.735-.2619-1.528-.5573-2.379-.8861-1.078-.4305-2.061-.8328-2.947-1.1973-.815-.3263-1.579-.7653-2.272-1.304-.626-.4962-1.128-1.1308-1.468-1.854-.38-.9014-.558-1.8754-.521-2.8531-.013-1.0076.229-2.0022.704-2.8909.457-.8495 1.073-1.6027 1.816-2.2185.749-.6173 1.6-1.0999 2.514-1.4266.899-.328 1.849-.4981 2.806-.5028.739-.0093 1.474.0967 2.181.3143.624.1956 1.223.4634 1.784.7981.526.3124 1.018.6789 1.468 1.0935.436.4064.838.8065 1.206 1.2004l-.59.4179c-.16.1168-.336.2099-.522.2765-.231.0744-.473.1095-.716.1037-.433.0153-.86-.0972-1.229-.3236z"/><path d="m58.3261 50.4227c1.9366-15.1381-8.7654-28.9797-23.9034-30.9163-15.138-1.9365-28.97974 8.7654-30.91628 23.9034-1.93654 15.1381 8.76538 28.9798 23.90348 30.9163 15.138 1.9366 28.9797-8.7654 30.9162-23.9034z"/></g><path d="m32.1761 47.0658v2.649h5.8007v4.4306h-5.7598v-.0157c-.154 0-.3142.0157-.4682.0157-.8557.0023-1.7031-.1676-2.4918-.4996-1.1462-.4848-2.1282-1.29-2.8281-2.319-.8595-1.2737-1.232-2.8141-1.0492-4.3398.1827-1.5257.9085-2.9346 2.0445-3.9692 1.1361-1.0346 2.6065-1.6258 4.1426-1.6654 1.536-.0397 3.035.4748 4.223 1.4494h11.3122c-.1446-.4525-.3142-.8987-.4933-1.3324-1.1346-2.6878-2.9768-5.0177-5.3303-6.7417-2.3536-1.724-5.1305-2.7777-8.0354-3.0489-2.9048-.2712-5.8288.2503-8.4608 1.5089s-4.8736 3.2073-6.486 5.6387c-1.6125 2.4313-2.5357 5.2544-2.6712 8.1687s.5217 5.8108 1.9016 8.3813 3.4309 4.7188 5.9347 6.2162c2.5039 1.4975 5.3669 2.288 8.2844 2.2876h16.0256v-16.8206zm5.8007 14.1403h-5.3419c-.2011 0-.4085.022-.6284.0251h-.4651c-2.316-.0324-4.5846-.6609-6.5872-1.8249-2.0025-1.164-3.6714-2.8242-4.8458-4.8206-1.1744-1.9965-1.8148-4.2618-1.8593-6.5776s.5083-4.604 1.6052-6.6441c1.0968-2.0401 2.7007-3.7632 4.657-5.0033 1.9564-1.2401 4.1991-1.9553 6.5122-2.0767s4.6184.3551 6.6938 1.3836 3.8508 2.5743 5.1552 4.4884h-6.2155c-1.1821-.7627-2.5257-1.2394-3.9242-1.392-1.3984-.1527-2.8133.0227-4.1321.5124s-2.5053 1.28-3.4653 2.3084c-.96 1.0283-1.667 2.2663-2.0649 3.6156-.398 1.3494-.4758 2.7729-.2275 4.1576.2484 1.3847.8162 2.6924 1.6583 3.8193.842 1.127 1.9352 2.0421 3.1928 2.6726 1.2575.6306 2.6448.9594 4.0516.9602h6.2311zm7.1707.0251h-4.5186l.0251-.0157h-.0251v-4.3992h4.5186zm0-7.0795h-4.5186v-4.4306h4.5186z" fill="#262626"/><path d="m31.3937 46.23v2.6489h5.8038v4.4307h-5.7661v-.0158c-.1539 0-.3142.0158-.465.0158-1.0491.0018-2.0824-.2553-3.0083-.7486-.9258-.4934-1.7155-1.2077-2.299-2.0795-.5929-.8835-.9573-1.9004-1.0604-2.9594s.0583-2.127.4696-3.1083c.4841-1.1476 1.2908-2.13 2.3222-2.8281.8821-.5947 1.8986-.9602 2.9575-1.0633 1.0588-.1032 2.1267.0593 3.1071.4726.5659.2378 1.095.5552 1.5711.9426h11.3122c-.1477-.4525-.3142-.8987-.4933-1.3323-1.1387-2.6831-2.9828-5.0077-5.3366-6.7268s-5.1292-2.7686-8.0316-3.0369c-2.9023-.2683-5.8231.2546-8.4522 1.5131-2.629 1.2585-4.868 3.2056-6.4792 5.6345-1.6113 2.4289-2.5345 5.2489-2.6716 8.1604s.5169 5.8057 1.8927 8.3753 3.4219 4.7186 5.921 6.2186c2.499 1.5 5.3578 2.2951 8.2725 2.3008h16.0256v-16.83zm5.8038 14.1403h-5.3419c-.2042 0-.4085.022-.6284.0251h-.4556c-2.3169-.0292-4.5872-.6549-6.5919-1.8168-2.0046-1.162-3.676-2.8209-4.853-4.8168-1.1769-1.9959-1.8197-4.2614-1.8662-6.578-.0466-2.3166.5047-4.6061 1.6005-6.6477 1.0958-2.0415 2.6992-3.7662 4.6556-5.0078 1.9564-1.2415 4.1997-1.9579 6.5135-2.0801 2.3139-.1222 4.6201.3539 6.6964 1.3824s3.8525 2.5747 5.1573 4.4895h-6.2092c-1.1813-.7686-2.5258-1.2507-3.9263-1.4078-1.4006-.1572-2.8185.015-4.1408.5027s-2.5124 1.2774-3.4754 2.3064c-.9631 1.0289-1.6726 2.2686-2.0719 3.6202s-.4774 2.7778-.2281 4.1649.8192 2.6968 1.6641 3.8248c.845 1.128 1.9417 2.043 3.2028 2.6722s2.6517.9551 4.0611.9519h6.2311zm7.1707.0251h-4.5186l.022-.0157h-.022v-4.4243h4.5186zm0-7.0796h-4.5186v-4.4306h4.5186z" fill="#fff"/><path d="m37.1975 55.9585h2.6521v1.2601h-2.6521z" fill="#999"/><path d="m35.0514 48.8789h2.1462v1.2601h2.6489v-1.2601h1.9451v-.0031h-6.7402z" fill="#999"/><path d="m893.696 68.6556c.475.2375.95.475 1.9.7126 3.563 1.6627 6.889 2.6128 10.927 2.6128 13.064 0 23.99-10.9264 23.99-23.9905s-10.926-23.9905-23.753-23.9905c-8.551 0-16.389 8.3135-21.615 13.5392l-6.413 6.4133-10.927-10.9264c-4.275-4.2755-9.026-9.0261-17.339-9.0261-13.54.2375-24.466 11.1639-24.466 24.228 0 13.0642 10.926 23.9905 23.753 23.9905 3.563 0 7.601-.7126 10.926-2.6128 3.088-1.9002 11.402-6.8884 16.152-11.639l1.188-1.1876 5.938 5.7007c4.038 3.563 7.126 4.9881 9.739 6.1758zm-3.801-23.2779c.951-.9501 1.901-1.9003 2.613-2.6128 3.801-3.8005 9.739-9.5012 14.015-9.5012 8.076 0 15.201 7.6009 15.201 15.6769s-6.888 15.2019-15.201 15.2019c-2.613 0-6.889-1.4252-9.502-2.8503-6.888-4.038-12.589-10.6889-12.589-10.6889zm-19.002 6.1758c-3.8 3.8004-11.164 8.551-13.777 9.9762-2.375 1.1876-4.275 1.9002-6.888 1.9002-8.076 0-15.202-6.8883-15.202-15.2019 0-8.076 6.888-15.2019 15.202-15.2019 4.751 0 6.888 2.1378 10.926 6.4133l11.164 10.9264z" fill="#756af8"/><path d="m938.589 63.1924c-.475-.4751-.713-1.4252-.713-2.3753v-24.4656c0-.9501.238-1.9002.951-2.3753.712-.7125 1.425-.9501 2.375-.9501s1.9.2376 2.375.9501c.713.7126.95 1.4252.95 2.3753v22.0903h11.164c2.138 0 3.088.9501 3.088 2.8504 0 1.9002-.95 2.8503-3.088 2.8503h-14.727c-1.187-.2375-1.9-.475-2.375-.9501z" fill="#756af8"/><path d="m962.342 37.7767c-.475-.4751-.713-.9501-.95-1.6627-.238-.9501 0-1.9002.713-2.6128.475-.7126 1.187-.9501 2.137-1.1877.713-.2375 1.663-.2375 2.376 0 1.662.4751 2.612 2.6129 2.137 4.038-.95 2.6129-4.513 3.0879-6.413 1.4252zm.238 25.6532c-.713-.475-.951-1.4252-.951-2.3753v-15.9145c0-.9501.238-1.9002.951-2.3753.712-.475 1.425-.7126 2.375-.7126s1.663.2376 2.375.7126c.713.4751.95 1.1877.95 2.3753v15.9145c0 .9501-.237 1.9003-.95 2.3753-1.187.7126-2.613.9501-3.8.4751-.475 0-.713-.2376-.95-.4751z" fill="#756af8"/><path d="m992.508 44.4275c1.188 1.4252 1.901 3.8005 1.901 6.8884v9.9762c0 .9501-.238 1.6627-.951 2.3753-.712.4751-1.425.7126-2.375.7126s-1.9-.2375-2.375-.7126-.95-1.1877-.95-2.3753v-9.7387c0-1.4252-.238-2.6129-.713-3.0879-.475-.7126-1.425-.9501-2.613-.9501-1.425 0-2.375.475-3.325 1.4252-.713.9501-1.188 2.1377-1.188 3.5629v9.2636c0 .9502-.237 1.6628-.95 2.3753-.475.4751-1.425.7126-2.375.7126s-1.9-.2375-2.375-.7126c-.713-.475-.951-1.1876-.951-2.3753v-15.9144c0-.9502.238-1.6627.951-2.1378.712-.4751 1.425-.7126 2.375-.7126s1.663.2375 2.138.7126.95 1.1876.95 2.1378v.7126c0-.2376.237-.4751.237-.4751.238-.2375.238-.2375.475-.4751.238-.2375.713-.7126.95-.9501 1.663-1.1876 3.801-1.9002 5.701-1.9002 2.138-.2376 4.276 0 5.463 1.6627z" fill="#756af8"/><path d="m1017.92 58.4417c.24.2376.24.2376.24.4751.24.7126.24 1.6627-.24 2.3753-.47.9501-1.18 1.1876-1.9 1.6627-.95.475-1.9.7126-2.85.9501-1.42.2375-2.61.4751-3.56.4751-2.37 0-4.28-.4751-6.18-1.4252-1.66-.9501-3.08-2.1378-4.033-3.8005-.95-1.6627-1.426-3.5629-1.426-5.9382 0-2.1378.476-4.038 1.426-5.7007.953-1.6627 2.133-3.0879 3.803-4.038 1.66-.9502 3.32-1.4252 5.46-1.4252 1.9 0 3.56.475 5.23 1.1876 1.42.9502 2.61 2.1378 3.32 3.563.71 1.6627 1.19 3.3254 1.19 5.4632 0 .7125-.24 1.1876-.48 1.4251-.23.2376-.71.4751-1.18.4751h-12.12c.24 1.6627.71 2.8503 1.67 3.8005.95.9501 2.13 1.1876 3.56 1.1876.95 0 1.66 0 2.37-.2375.72-.2375 1.43-.4751 2.14-.7126s1.43-.4751 2.14-.4751c.24 0 .71 0 .95.2376.24 0 .47.2375.47.475zm-11.87-10.6888c-.72.7126-1.19 1.9002-1.43 3.5629h8.32c0-1.4251-.48-2.6128-1.19-3.5629-.71-.7126-1.66-1.1877-2.85-1.1877s-2.14.4751-2.85 1.1877z" fill="#756af8"/><path d="m1024.1 63.4299c-.71-.475-.95-1.4251-.95-2.3753v-24.7031c0-.9501.24-1.9002.95-2.3753.71-.7125 1.42-.9501 2.38-.9501.95 0 1.9.2376 2.37.9501.71.7126.95 1.4252.95 2.3753v24.4656c0 .7126-.24 1.6627-.71 2.3753-.95.7126-2.38 1.4252-3.8.9501-.48-.2375-.95-.475-1.19-.7126z" fill="#756af8"/><path d="m1039.54 62.9548c-1.66-.9501-2.85-2.1377-3.8-3.8004s-1.43-3.563-1.43-5.9383c0-2.1377.48-4.2755 1.43-5.9382s2.37-3.0879 4.04-4.038c1.66-.9501 3.8-1.4252 5.94-1.4252 1.18 0 2.37.2375 3.56.4751.95.2375 2.14.7125 3.09 1.4251 1.42.9502 1.9 2.8504.95 4.2756-.24.2375-.24.475-.72.7126-.47.2375-.71 0-1.18 0-.95-.2376-1.9-.4751-2.85-.9502-.72-.2375-1.43-.7125-2.38-.7125-1.66 0-2.85.7125-4.04 1.6627-.95.9501-1.19 2.6128-1.19 4.513 0 1.9003.48 3.563 1.19 4.5131.95.9501 2.14 1.6627 3.8 1.6627.95 0 1.43-.2375 2.38-.4751.71-.2375 1.19-.475 1.9-.7126 1.19-.475 2.14-.475 2.85.2376.47.475.47 1.1876.47 1.9002 0 1.1877-.47 1.9003-1.42 2.3753-.95.4751-1.9.9501-3.33 1.4252-1.42.475-2.61.4751-3.8.4751-1.9-.2376-3.8-.7126-5.46-1.6628z" fill="#756af8"/><path d="m1061.39 62.9548c-1.66-.9501-3.09-2.1378-4.04-3.8005s-1.42-3.5629-1.42-5.9382.47-4.2756 1.42-5.9383 2.14-2.8503 4.04-3.8004c1.66-.9502 3.8-1.4252 5.94-1.4252s4.28.475 5.94 1.4252c1.66.9501 3.09 2.1377 4.04 3.8004s1.42 3.563 1.42 5.9383-.47 4.2755-1.42 5.9382-2.14 2.8504-4.04 3.8005c-1.66.9501-3.8 1.4252-5.94 1.4252s-4.28-.4751-5.94-1.4252zm10.69-9.7387c0-2.1378-.47-3.563-1.19-4.5131-.71-.9501-1.9-1.4252-3.56-1.4252-3.09 0-4.75 2.1378-4.75 6.1758s1.66 6.1758 4.75 6.1758c3.33-.2375 4.75-2.3753 4.75-6.4133z" fill="#756af8"/><path d="m1101.77 44.4276c1.19 1.4251 1.9 3.8004 1.9 6.8883v9.9763c0 .9501-.24 1.6627-.95 2.3753-.71.475-1.42.7125-2.37.7125s-1.9-.2375-2.38-.7125c-.47-.4751-.95-1.1877-.95-2.3753v-9.7388c0-1.4251-.24-2.6128-.71-3.0879-.48-.7125-1.43-.9501-2.61-.9501-1.43 0-2.38.4751-3.33 1.4252-.71.9501-1.19 2.1378-1.19 3.563v9.2636c0 .9501-.23 1.6627-.95 2.3753-.47.4751-1.42.7126-2.37.7126s-1.9-.2375-2.38-.7126c-.71-.4751-.95-1.1876-.95-2.3753v-15.9145c0-.9501.24-1.6627.95-2.1377.71-.4751 1.43-.7126 2.38-.7126s1.66.2375 2.14.7126c.47.475.95 1.1876.95 2.1377v.7126c0-.475.71-1.1876 1.18-1.4252.48-.475.95-.7126 1.43-.9501 2.85-1.6627 7.84-2.6128 10.21.2376z" fill="#756af8"/><path d="m1112.22 63.9049c-.23 0-.71-.2375-.95-.2375-.95-.2375-1.9-.7126-2.61-1.1876-.47-.2376-.71-.7126-.95-.9502-.24-.475-.24-.9501-.24-1.4251 0-.7126.24-1.1877.48-1.6627.47-.4751.95-.7126 1.42-.7126.48 0 .72 0 1.19.2375.48.2375.71.2375 1.19.4751.71.475 1.66.7125 2.37.9501.72.2375 1.67.2375 2.85.2375.95 0 1.9-.2375 2.38-.4751.47-.2375.95-.7126.95-1.1876 0-.4751-.24-.7126-.48-.9501-.23-.2376-.71-.4751-1.42-.7126s-1.66-.4751-3.09-.7126c-2.61-.4751-4.51-1.1877-5.7-2.1378s-1.66-2.3753-1.66-4.038c0-2.6128 1.66-4.7506 4.04-5.7007 1.42-.7126 2.85-.9501 4.27-.9501 1.9-.2375 3.8 0 5.46.7126 1.67.475 3.57 1.6627 3.57 3.5629 0 .7126-.24 1.1877-.48 1.6627-.47.4751-.95.7126-1.42.7126-1.43 0-2.62-.9501-4.04-1.4252-1.43-.475-3.09-.475-4.51 0-.48.2376-.95.4751-.95.9502-.24.475 0 .9501.47 1.1876.48.4751 1.19.4751 1.9.7126s1.43.2375 2.14.4751c1.9.475 3.56.9501 4.51 1.4251 1.19.4751 1.9 1.1877 2.38 2.1378.47.7126.71 1.9002.71 3.0879 0 2.1378-.95 3.8005-2.61 4.9881-1.19.9501-2.85 1.4252-4.52 1.6627-2.13.2376-4.51-.2375-6.65-.7126z" fill="#756af8"/><path d="m689.142 50.574 23.712-28.5958h-11.64l-21.26 25.6336v-.1642l-9.634 11.6804-2.096 2.5414c-.06.1012-.118.2052-.18.3064l-3.612 4.3546c-.67.6082-1.378 1.1732-2.124 1.685-3.168 2.1706-6.956 3.4322-11.074 3.4334v.1488c-2.74-.0048-5.328-.5658-7.688-1.5784-3.55-1.525-6.584-4.0814-8.722-7.294-2.136-3.2178-3.38-7.0632-3.382-11.2454 0-2.7918.554-5.4262 1.554-7.8296 1.502-3.6066 4.02-6.6868 7.186-8.8578 3.168-2.1694 6.956-3.4304 11.076-3.4322 4.354.0018 8.344 1.4112 11.616 3.815l5.224-7.32c-4.722-3.481-10.564-5.5388-16.84-5.5376-3.954 0-7.742.8166-11.182 2.2942-5.16 2.216-9.536 5.9084-12.634 10.5596-3.096 4.6484-4.908 10.2842-4.906 16.3084 0 .0994.008.2006.008.3012h-.156c0 2.7888-.554 5.425-1.556 7.8284-1.502 3.604-4.018 6.6862-7.182 8.856-3.169 2.1694-6.958 3.4314-11.076 3.4338-2.75-.0016-5.345-.5632-7.713-1.5806-3.55-1.5226-6.584-4.0798-8.724-7.2934-1-1.5062-1.803-3.1536-2.375-4.9066-.369-.1832-.767-.3892-1.188-.6174-2.03-1.1036-4.574-2.714-6.66-4.8276-.874-.8878-1.657-1.7648-2.36-2.6134.046.5658.073 1.1392.073 1.7208 0 2.7888-.553 5.425-1.555 7.8284-1.5 3.604-4.019 6.6862-7.184 8.856-3.168 2.1694-6.958 3.4314-11.075 3.4338-2.75-.0016-5.345-.5632-7.713-1.5806-3.551-1.5226-6.585-4.0798-8.722-7.2934-2.138-3.2166-3.381-7.0644-3.382-11.2442 0-2.7904.555-5.4268 1.556-7.8312 1.5-3.6044 4.019-6.6846 7.183-8.8556 3.169-2.1694 6.957-3.4322 11.078-3.433 2.747 0 5.342.5636 7.711 1.5794 3.551 1.524 6.584 4.0804 8.722 7.2934.048.0732.094.147.141.2212l.013-.0052.001.0064.013.0332c.001.005.006.0136.008.0208.082.1282.159.262.238.391.2.4562.598 1.321 1.227 2.4492.064.1128.131.2316.199.3506.052.1252.109.2474.158.3734.584.9666 1.328 2.0776 2.247 3.2688.05.0656.097.1294.148.1942.803 1.0494 1.748 2.144 2.83 3.217.007.008.013.0142.019.0202.009.009.017.0158.025.0248.172.1702.345.3372.525.5048.07.0644.139.1292.209.193 1.134 1.0454 2.405 2.0562 3.846 2.9644 1.619 1.0214 3.443 1.9084 5.463 2.5462 2.021.6396 4.237 1.027 6.605 1.0638h.003c.204.0034.404.0056.603.0056 3.816.0008 7.238-.6048 10.243-1.6836 2.255-.8076 4.269-1.8774 6.036-3.1168 2.652-1.8624 4.744-4.0948 6.374-6.3824 1.63-2.2922 2.804-4.6412 3.66-6.8092.654-1.6594.99-3.308.99-4.8866 0-.9084-.11-1.7854-.316-2.6026-.358-1.431-.998-2.6534-1.71-3.6152-1.076-1.4494-2.28-2.3524-3.216-2.9384-.946-.583-1.65-.8526-1.86-.9296l-.016.051c-3.753-1.821-7.959-2.845-12.378-2.8442-3.955-.0008-7.744.8146-11.183 2.2928-3.366 1.4468-6.395 3.5222-8.958 6.0812v-28.00405h-8.904v24.39285c.544.5288 1.11 1.1024 1.696 1.7286 2.253 2.4042 3.712 4.7274 4.993 6.8642 1.283 2.1428 2.391 4.0846 3.948 5.857.236.2714.487.5384.749.8036 1.53-3.0386 3.807-5.6392 6.582-7.5418 3.166-2.1694 6.956-3.4322 11.077-3.433 3.612.0008 6.966.9712 9.879 2.6748l.035-.0626c.191.1512.365.3262.462.4766.072.1062.118.198.152.3038.032.1056.062.229.062.445 0 .2898-.056.7702-.353 1.5282-.56 1.42-1.299 2.918-2.246 4.3404-.71 1.0668-1.536 2.0926-2.489 3.027-1.435 1.4024-3.148 2.6066-5.297 3.4896-2.149.8812-4.751 1.45-8.012 1.4508-.153 0-.305-.0008-.457-.003h-.003c-1.347-.0232-2.56-.2152-3.686-.532-1.965-.5546-3.672-1.4984-5.172-2.6582-.524-.4048-1.019-.8394-1.487-1.2886 0-.0022 0-.0078.003-.012-.225-.2104-.44-.4234-.65-.6356-1.232-1.289-2.238-2.6526-2.976-3.827-.563-.8938-1.143-1.6386-1.405-2.1684-.13-.2662-.391-.679-.391-.679-1.332-2.2306-2.717-4.4974-4.93-6.8616-.029-.0314-.058-.0572-.084-.0888v.0016c-1.137-1.0894-2.356-2.0896-3.656-2.981-4.579-3.1424-10.128-4.9838-16.06-4.9814-3.955-.0008-7.743.8146-11.183 2.2928-5.16 2.2174-9.536 5.9094-12.632 10.56-3.096 4.6482-4.91 10.2832-4.908 16.3084-.002 4.013.803 7.8606 2.259 11.3508 2.183 5.2398 5.819 9.6822 10.401 12.8258 4.578 3.1446 10.128 4.9848 16.063 4.9838 3.952.0004 7.742-.8164 11.181-2.2948 5.16-2.2166 9.535-5.908 12.633-10.5588.193-.2936.383-.589.567-.8902 2.14 3.4814 4.976 6.4672 8.315 8.76 4.58 3.1446 10.129 4.9848 16.065 4.9838 3.951.0004 7.741-.8164 11.18-2.2948 5.156-2.2166 9.536-5.908 12.63-10.5588.216-.3222.424-.6498.624-.9832 2.126 3.3914 4.912 6.3052 8.19 8.5518 4.578 3.1436 10.126 4.9838 16.06 4.9832 3.95.0006 7.744-.8156 11.18-2.2936 3.216-1.3802 6.124-3.334 8.61-5.7352v8.1412h8.906v-19.1014l3.342-4.0272 18.284 23.1286h11.42zm-9.188-47.58425h-8.906v48.34985c0 1.3116-.126 2.5876-.364 3.8244l9.27-11.2374z" fill="#190b5a"/><path d="m464.028 23.7314v23.696c0 11.0388-6.675 17.7062-16.794 17.7062-10.12 0-17.224-6.6674-17.224-17.7062v-44.48599h-17.01v44.48599c0 20.2206 13.348 32.7906 34.234 32.7906 20.777 0 33.804-12.57 33.804-32.7906v-44.48599h-.298c-8.971 2.92421-15.663 10.99459-16.712 20.78999z" fill="url(#a)"/><path d="m495.6 2.94141h-.292v76.51269h17.01v-55.7072c-.161-8.5027-7.743-17.8794-16.718-20.80549z" fill="url(#b)"/><path d="m464.028 23.7314v23.696c0 .0142-.001.0284-.001.0442.004.2356.017.4694.017.7068 0 15.9586-11.838 29.1028-27.083 30.8938 3.173.7504 6.605 1.1458 10.273 1.1458 20.777 0 33.804-12.57 33.804-32.7906v-44.48599h-.298c-8.971 2.92421-15.663 10.99459-16.712 20.78999z" fill="url(#c)"/><path d="m430.01 23.7698v-20.82839h-17.01v.00337c9.044 2.92947 15.82 10.99802 17.01 20.82502z" fill="url(#d)"/><path d="m495.308 56.7804v22.6736h16.802c-9.37-3.357-16.203-12.1646-16.802-22.6736z" fill="url(#e)"/><path d="m1289 49.9893v-18.3334c0-1.7675-.71-3.462-1.95-4.7118-1.25-1.2498-2.95-1.9529-4.72-1.9548h-18.33c0-5.7673 2-11.356 5.65-15.81933 3.66-4.46335 8.74-7.52702 14.39-8.672094 5.65-1.145069 11.53-.301137 16.63 2.388854 5.1 2.68998 9.12 7.06065 11.37 12.37167 1.6 3.8013 2.25 7.9418 1.86 12.0516-.38 4.1098-1.77 8.061-4.05 11.5007-2.29 3.4397-5.38 6.2609-9.02 8.2115s-7.7 2.97-11.83 2.9671z" fill="url(#g)"/><path d="m1282.33 24.9893h-36.66c-3.69 0-6.67 2.9847-6.67 6.6666v36.6667c0 3.6819 2.98 6.6667 6.67 6.6667h36.66c3.69 0 6.67-2.9848 6.67-6.6667v-36.6667c0-3.6819-2.98-6.6666-6.67-6.6666z" fill="url(#h)"/><path d="m1264 74.9893c0-6.6305 2.63-12.9893 7.32-17.6777s11.05-7.3223 17.68-7.3223v18.3333c0 1.7681-.7 3.4638-1.95 4.714-1.25 1.2503-2.95 1.9527-4.72 1.9527z" fill="url(#i)"/><path d="m1239 49.9893v-18.3334c0-1.7681.7-3.4638 1.95-4.714 1.25-1.2503 2.95-1.9526 4.72-1.9526h18.33c0 6.6304-2.63 12.9892-7.32 17.6776s-11.05 7.3224-17.68 7.3224z" fill="url(#j)"/><path d="m1345.97 61h8.69l-12.2-33.696h-9.5l-12.19 33.696h8.59l2.02-5.952h12.57zm-4.13-12.288h-8.3l4.12-12.336zm28.86 2.256-6.19-16.752h-9.17l10.9 25.872-6.15 13.632h8.84l16.8-39.504h-8.88zm26.2-2.4c0-4.608 2.26-5.952 6.15-5.952h2.25v-8.688c-3.6 0-6.53 1.92-8.4 4.752v-4.464h-8.21v26.784h8.21zm38.53-.96c0-8.496-6.04-13.776-13.92-13.776-7.82 0-13.92 5.28-13.92 13.776s5.96 13.776 13.83 13.776 14.01-5.28 14.01-13.776zm-19.48 0c0-4.56 2.59-6.672 5.56-6.672 2.88 0 5.57 2.112 5.57 6.672 0 4.512-2.73 6.672-5.66 6.672-2.98 0-5.47-2.16-5.47-6.672zm37.26 1.056c0 8.688 5.66 12.672 12.58 12.672 6.91 0 12.62-3.984 12.62-12.672v-21.12h-4.37v21.168c0 6.144-3.26 8.784-8.21 8.784-4.94 0-8.25-2.64-8.25-8.784v-21.168h-4.37zm32.49 12.336h4.36v-33.456h-4.36z" fill="#000"/></svg>