<svg fill="none" height="44" viewBox="0 0 45 44" width="45" xmlns="http://www.w3.org/2000/svg"><g fill="#0067f4"><path d="m28.9548 22.4531v-.8684c0-6.4427-2.106-12.74067-6.0912-18.20787-.2052-.27872-.5292-.44488-.8748-.44488s-.6696.16616-.8748.44488c-3.9852 5.4672-6.0912 11.76517-6.0912 18.20787v.8684c-4.9356 2.7068-5.65384 9.0423-5.68084 9.3264-.0324.3001.0702.6003.27.8254.2052.2251.49684.3538.79924.3538h23.139c.3078 0 .5994-.1287.7992-.3538.2052-.2251.3024-.5253.27-.8254-.0162-.2841-.729-6.6196-5.6646-9.3264zm-13.932 2.5835v5.7781h-3.3102c.3618-1.5008 1.2474-4.1004 3.3102-5.7781zm2.16-3.4519c0-5.4993 1.6578-10.8915 4.806-15.68331 3.1482 4.79181 4.806 10.18401 4.806 15.68331v9.23h-9.612zm11.772 9.23v-5.7781c2.052 1.6777 2.9484 4.2773 3.3102 5.7781z"/><path d="m23.112 15.0294h-2.7378c-.594 0-1.08.4824-1.08 1.072s.486 1.072 1.08 1.072h2.7378c.594 0 1.08-.4824 1.08-1.072s-.4806-1.072-1.08-1.072z"/><path d="m18.2088 35.3975c-.594 0-1.08.4824-1.08 1.072v6.0943c0 .5896.486 1.072 1.08 1.072s1.08-.4824 1.08-1.072v-6.0943c0-.5896-.486-1.072-1.08-1.072z"/><path d="m21.9888 35.3975c-.594 0-1.08.4824-1.08 1.072v6.0943c0 .5896.486 1.072 1.08 1.072s1.08-.4824 1.08-1.072v-6.0943c0-.5896-.486-1.072-1.08-1.072z"/><path d="m25.7688 35.3975c-.594 0-1.08.4824-1.08 1.072v6.0943c0 .5896.486 1.072 1.08 1.072s1.08-.4824 1.08-1.072v-6.0943c0-.5896-.4806-1.072-1.08-1.072z"/><path d="m6.4476 16.8733h-1.6038v-1.5919c0-.5896-.486-1.072-1.08-1.072s-1.08.4824-1.08 1.072v1.5919h-1.6038c-.594 0-1.08.4824-1.08 1.072s.486 1.072 1.08 1.072h1.6038v1.5919c0 .5896.486 1.072 1.08 1.072s1.08-.4824 1.08-1.072v-1.5919h1.6038c.594 0 1.08-.4824 1.08-1.072s-.4806-1.072-1.08-1.072z"/><path d="m28.3824 3.92888h.7182v.71288c0 .5896.486 1.072 1.08 1.072s1.08-.4824 1.08-1.072v-.71288h.7182c.594 0 1.08-.4824 1.08-1.072s-.486-1.072-1.08-1.072h-.7182v-.71288c0-.5896-.486-1.072-1.08-1.072s-1.08.4824-1.08 1.072v.71288h-.7182c-.594 0-1.08.4824-1.08 1.072s.4806 1.072 1.08 1.072z"/><path d="m43.1676 10.3073h-2.7432v-2.72291c0-.5896-.486-1.072-1.08-1.072s-1.08.4824-1.08 1.072v2.72291h-2.7432c-.594 0-1.08.4824-1.08 1.072s.486 1.072 1.08 1.072h2.7432v2.7229c0 .5896.486 1.072 1.08 1.072s1.08-.4824 1.08-1.072v-2.7229h2.7432c.594 0 1.08-.4824 1.08-1.072s-.486-1.072-1.08-1.072z"/></g></svg>